<svg xmlns="http://www.w3.org/2000/svg" viewBox="0 0 20.52 84.4"><defs><style>.cls-1{fill:#a6c4d1;}.cls-1,.cls-3,.cls-4{stroke:#00557c;}.cls-1,.cls-4{stroke-width:0.85px;}.cls-2{fill:#d9edf5;}.cls-3,.cls-4{fill:none;}.cls-3{stroke-width:0.23px;}.cls-5{fill:#00557c;}</style></defs><g id="Original-2" data-name="Original"><rect class="cls-1" x="0.43" y="0.43" width="19.67" height="83.55"/><rect class="cls-2" x="10.66" y="2.07" width="1.25" height="1.25"/><rect class="cls-2" x="12.93" y="2.07" width="1.25" height="1.25"/><rect class="cls-2" x="15.2" y="2.07" width="1.25" height="1.25"/><rect class="cls-3" x="9.69" y="0.58" width="7.74" height="3.94"/><path class="cls-4" d="M387.07,225.91a59.19,59.19,0,0,0,14.09-1.71h5.47" transform="translate(-386.59 -144.89)"/><line class="cls-3" x1="18.73" y1="36.69" x2="1.79" y2="36.69"/><polygon class="cls-5" points="12.81 60.33 7.7 60.33 7.7 54.64 7.13 54.64 7.13 60.89 13.38 60.89 13.38 54.64 12.81 54.64 12.81 60.33"/><polygon class="cls-5" points="7.7 41.57 7.7 47.25 7.13 47.25 7.13 41 13.38 41 13.38 47.25 12.81 47.25 12.81 41.57 7.7 41.57"/><polygon class="cls-5" points="9.4 53.5 3.72 53.5 3.72 48.39 9.4 48.39 9.4 47.82 3.15 47.82 3.15 54.07 9.4 54.07 9.4 53.5"/><polygon class="cls-5" points="9.4 69.59 9.4 70.16 3.15 70.16 3.15 63.91 3.72 63.91 3.72 69.59 9.4 69.59"/><polygon class="cls-5" points="16.79 63.91 16.79 69.59 11.11 69.59 11.11 70.16 17.36 70.16 17.36 63.91 16.79 63.91"/><polygon class="cls-5" points="11.11 54.07 11.11 53.5 16.8 53.5 16.8 48.39 11.11 48.39 11.11 47.82 17.36 47.82 17.36 54.07 11.11 54.07"/><rect class="cls-3" x="1.68" y="8.72" width="17.17" height="63.57"/><rect class="cls-5" x="5.34" y="9.41" width="9.83" height="2.61"/><rect class="cls-2" x="3.21" y="14.18" width="14.1" height="17.16"/><rect class="cls-3" x="8.27" y="0.43" width="10.57" height="6.58"/></g></svg>