<svg xmlns="http://www.w3.org/2000/svg" viewBox="0 0 40.93 57.54"><defs><style>.cls-1{fill:#a6c4d1;}.cls-1,.cls-4,.cls-5{stroke:#00557c;}.cls-1,.cls-5{stroke-width:0.85px;}.cls-2{fill:#00557c;}.cls-2,.cls-5{fill-rule:evenodd;}.cls-3{fill:#d9edf5;}.cls-4,.cls-5{fill:none;}.cls-4{stroke-width:0.37px;}</style></defs><g id="Original"><rect class="cls-1" x="0.43" y="0.43" width="40.08" height="56.69"/><polyline class="cls-2" points="4.22 5.67 14.51 5.67 14.51 8.32 4.22 8.32 4.22 5.67"/><path class="cls-2" d="M385.82,165.31" transform="translate(-376.46 -158.31)"/><rect class="cls-3" x="33.92" y="20.78" width="1.23" height="1.23"/><line class="cls-4" x1="0.71" y1="19.87" x2="40.51" y2="19.87"/><line class="cls-4" x1="0.71" y1="22.91" x2="40.51" y2="22.91"/><line class="cls-4" x1="0.28" y1="34.63" x2="40.51" y2="34.63"/><line class="cls-4" x1="0.28" y1="37.67" x2="40.51" y2="37.67"/><path class="cls-5" d="M377.57,162.25h25.75A32.72,32.72,0,0,1,417,159.16" transform="translate(-376.46 -158.31)"/><path class="cls-5" d="M416.59,212h-26A32.78,32.78,0,0,1,377,215.07" transform="translate(-376.46 -158.31)"/></g></svg>