<svg xmlns="http://www.w3.org/2000/svg" viewBox="0 0 18.85 57.54"><defs><style>.cls-1{fill:#a6c4d1;}.cls-2,.cls-4,.cls-5{fill:none;}.cls-2,.cls-5{stroke:#00557c;}.cls-2{stroke-width:0.85px;}.cls-3{fill:#d9edf5;fill-rule:evenodd;}.cls-4{stroke:#a6c4d1;stroke-width:0.23px;}.cls-5{stroke-width:0.37px;}</style></defs><g id="Original"><rect class="cls-1" x="0.43" y="0.43" width="18" height="56.69"/><rect class="cls-2" x="0.43" y="0.43" width="18" height="56.69"/><polyline class="cls-3" points="3.77 22.12 5.22 22.12 5.22 20.67 3.77 20.67 3.77 22.12"/><polyline class="cls-4" points="3.77 22.12 5.22 22.12 5.22 20.67 3.77 20.67 3.77 22.12"/><line class="cls-5" x1="0.43" y1="19.87" x2="18.43" y2="19.87"/><line class="cls-5" x1="0.43" y1="22.91" x2="18.43" y2="22.91"/><line class="cls-5" x1="0.43" y1="34.63" x2="18.43" y2="34.63"/><line class="cls-5" x1="0.43" y1="37.67" x2="18.43" y2="37.67"/><path class="cls-2" d="M387.73,162.25h4.61A32.72,32.72,0,0,1,406,159.16" transform="translate(-387.3 -158.31)"/><path class="cls-2" d="M405.23,212h-3.6A32.72,32.72,0,0,1,388,215.07" transform="translate(-387.3 -158.31)"/></g></svg>