<svg xmlns="http://www.w3.org/2000/svg" viewBox="0 0 273.73 100.95"><defs><style>.cls-1{fill:#a6c4d1;}.cls-2,.cls-3,.cls-5{fill:none;}.cls-2{stroke:#626261;stroke-linecap:round;stroke-linejoin:round;stroke-width:0.28px;}.cls-3,.cls-5{stroke:#00557c;}.cls-3{stroke-width:0.85px;}.cls-4{fill:#d9edf5;}.cls-5{stroke-width:0.23px;}.cls-6{fill:#d9e6eb;}.cls-7{fill:#00557c;}</style></defs><g id="Original"><polygon class="cls-1" points="258.78 0.91 258.78 0.94 15.04 0.94 15.04 0.91 2.17 0.91 0.47 2.61 0.47 99.25 2.17 100.95 15.04 100.95 15.04 100.87 258.78 100.87 258.78 100.95 271.64 100.95 273.35 99.25 273.35 2.61 271.64 0.91 258.78 0.91"/><line class="cls-2" x1="114.9" y1="94.29" x2="115.05" y2="99.96"/><line class="cls-3" x1="134.65" y1="0.45" x2="134.65" y2="7.4"/><line class="cls-3" x1="134.65" y1="100.39" x2="134.65" y2="93.28"/><line class="cls-3" x1="215.57" y1="0.74" x2="215.57" y2="99.94"/><polygon class="cls-4" points="124.31 33.13 124.08 33.17 123.88 33.27 123.71 33.44 123.61 33.64 123.57 33.87 123.57 66.8 123.61 67.03 123.71 67.23 123.88 67.4 124.08 67.5 124.31 67.54 146.94 67.54 147.17 67.5 147.37 67.4 147.53 67.23 147.64 67.03 147.68 66.8 147.68 33.87 147.64 33.64 147.53 33.44 147.37 33.27 147.17 33.17 146.94 33.13 124.31 33.13"/><path class="cls-3" d="M526.63,152.89a2.83,2.83,0,0,0-5.66,0v68a2.83,2.83,0,1,0,5.66,0Z" transform="translate(-259.97 -136.45)"/><path class="cls-3" d="M267,220.91a2.84,2.84,0,1,0,5.67,0v-68a2.84,2.84,0,0,0-5.67,0Z" transform="translate(-259.97 -136.45)"/><rect class="cls-3" x="123.12" y="7.4" width="24.94" height="85.88" rx="1.9"/><path class="cls-5" d="M341.57,137.33" transform="translate(-259.97 -136.45)"/><polyline class="cls-3" points="218.76 99.94 218.76 81.75 218.76 0.74"/><line class="cls-5" x1="38.94" y1="6.55" x2="28.03" y2="6.55"/><line class="cls-5" x1="38.94" y1="94.29" x2="28.03" y2="94.29"/><polygon class="cls-3" points="39.1 0.88 22.59 0.88 22.59 5.53 24.65 5.53 25.7 8.36 25.7 50.14 22.59 50.14 22.59 50.7 25.7 50.7 25.7 92.48 24.65 95.31 22.59 95.31 22.59 99.96 39.1 99.96 39.1 0.88"/><polyline class="cls-5" points="25.94 99.96 28.03 94.29 28.03 6.55 25.94 0.88"/><line class="cls-5" x1="57.93" y1="6.55" x2="47.02" y2="6.55"/><line class="cls-5" x1="57.93" y1="94.29" x2="47.02" y2="94.29"/><polygon class="cls-3" points="58.09 0.88 41.58 0.88 41.58 5.53 43.64 5.53 44.69 8.36 44.69 50.14 41.58 50.14 41.58 50.7 44.69 50.7 44.69 92.48 43.64 95.31 41.58 95.31 41.58 99.96 58.09 99.96 58.09 0.88"/><polyline class="cls-5" points="44.93 99.96 47.02 94.29 47.02 6.55 44.93 0.88"/><line class="cls-5" x1="76.92" y1="6.55" x2="66.01" y2="6.55"/><line class="cls-5" x1="76.92" y1="94.29" x2="66.01" y2="94.29"/><polygon class="cls-3" points="77.08 0.88 60.57 0.88 60.57 5.53 62.63 5.53 63.67 8.36 63.67 50.14 60.57 50.14 60.57 50.7 63.67 50.7 63.67 92.48 62.63 95.31 60.57 95.31 60.57 99.96 77.08 99.96 77.08 0.88"/><polyline class="cls-5" points="63.92 99.96 66.01 94.29 66.01 6.55 63.92 0.88"/><line class="cls-5" x1="95.91" y1="6.46" x2="85" y2="6.46"/><line class="cls-5" x1="95.91" y1="94.21" x2="85" y2="94.21"/><polygon class="cls-3" points="96.07 0.79 79.56 0.79 79.56 5.44 81.62 5.44 82.66 8.28 82.66 50.05 79.56 50.05 79.56 50.62 82.66 50.62 82.66 92.39 81.62 95.23 79.56 95.23 79.56 99.88 96.07 99.88 96.07 0.79"/><polyline class="cls-5" points="82.91 99.88 85 94.21 85 6.46 82.91 0.79"/><line class="cls-5" x1="114.9" y1="6.55" x2="103.99" y2="6.55"/><line class="cls-5" x1="114.9" y1="94.29" x2="103.99" y2="94.29"/><polyline class="cls-5" points="103.99 35.12 103.99 5.8 101.9 0.88"/><path class="cls-5" d="M364,169.59" transform="translate(-259.97 -136.45)"/><polyline class="cls-5" points="101.9 99.96 103.99 94.29 103.99 64.98"/><polygon class="cls-3" points="101.65 66.23 108.86 62.38 108.86 38.3 101.65 34.44 101.65 8.36 100.61 5.53 98.55 5.53 98.55 0.88 115.06 0.88 115.06 99.96 98.55 99.96 98.55 95.31 100.61 95.31 101.65 92.48 101.65 66.23"/><polyline class="cls-3" points="101.65 66.23 96.07 62.38 96.07 38.3 101.65 34.44"/><path class="cls-5" d="M505,148.81a3.29,3.29,0,1,0-3.29,3.28A3.28,3.28,0,0,0,505,148.81Z" transform="translate(-259.97 -136.45)"/><rect class="cls-5" x="241.02" y="10.79" width="1.42" height="4.7"/><path class="cls-3" d="M506.8,148.81a5.11,5.11,0,1,0-5.11,5.1A5.1,5.1,0,0,0,506.8,148.81Z" transform="translate(-259.97 -136.45)"/><rect class="cls-6" x="151.92" y="5.25" width="32.48" height="90.41"/><rect class="cls-6" x="202.99" y="5.25" width="0.91" height="90.41"/><rect class="cls-6" x="198.68" y="5.25" width="1.36" height="90.41"/><rect class="cls-6" x="193.46" y="5.25" width="2.27" height="90.41"/><rect class="cls-6" x="187.34" y="5.25" width="3.17" height="90.41"/><rect class="cls-7" x="155.88" y="9.21" width="24.54" height="6.55"/><polygon class="cls-3" points="258.73 0.42 258.73 0.45 14.99 0.45 14.99 0.42 2.13 0.42 0.42 2.13 0.42 98.77 2.13 100.47 14.99 100.47 14.99 100.39 258.73 100.39 258.73 100.47 271.6 100.47 273.3 98.77 273.3 2.13 271.6 0.42 258.73 0.42"/><line class="cls-5" x1="12.73" y1="100.36" x2="12.73" y2="0.31"/><line class="cls-3" x1="15.2" y1="100.36" x2="15.2" y2="0.31"/><line class="cls-5" x1="260.74" y1="100.47" x2="260.74" y2="0.43"/><line class="cls-3" x1="258.26" y1="100.47" x2="258.26" y2="0.43"/></g></svg>