<svg xmlns="http://www.w3.org/2000/svg" viewBox="0 0 17.86 81.35"><defs><style>.cls-1{fill:#a6c4d1;stroke-width:0.85px;}.cls-1,.cls-2{stroke:#00557c;}.cls-2{fill:none;stroke-width:0.23px;}.cls-3{fill:#d9edf5;}.cls-4{fill:#d9e6eb;}</style></defs><g id="Original"><rect class="cls-1" x="0.43" y="0.43" width="17.01" height="73.7"/><path class="cls-1" d="M388.86,220.53h16v6.81H403a.31.31,0,0,1-.25-.14c-.93-1.61-1.85-3.22-2.78-4.82a.29.29,0,0,0-.25-.15H394a.29.29,0,0,0-.25.15c-.93,1.6-1.85,3.21-2.78,4.82a.29.29,0,0,1-.25.14h-1.87Z" transform="translate(-387.92 -146.41)"/><line class="cls-2" x1="11.94" y1="75.88" x2="11.94" y2="74.12"/><line class="cls-2" x1="14.88" y1="80.88" x2="14.88" y2="74.12"/><rect class="cls-1" x="15.61" y="76.39" width="1.82" height="4.54"/><rect class="cls-2" x="0.43" y="0.43" width="17.01" height="1.12"/><path class="cls-1" d="M396.55,173.4a1.53,1.53,0,1,0,1.8,1.2A1.52,1.52,0,0,0,396.55,173.4Z" transform="translate(-387.92 -146.41)"/><path class="cls-1" d="M400.23,178.67a4.54,4.54,0,1,0-.35,6.41A4.54,4.54,0,0,0,400.23,178.67Z" transform="translate(-387.92 -146.41)"/><rect class="cls-3" x="12.72" y="4.64" width="0.86" height="0.86"/><rect class="cls-3" x="11.28" y="4.64" width="0.86" height="0.86"/><rect class="cls-3" x="9.84" y="4.64" width="0.86" height="0.86"/><rect class="cls-2" x="0.43" y="4.07" width="17.01" height="2.03"/><polygon class="cls-2" points="7.2 62.16 7.2 62.23 7.19 62.3 7.19 62.36 7.18 62.43 7.16 62.5 7.15 62.57 7.13 62.63 7.1 62.7 7.08 62.77 7.05 62.83 7.02 62.89 6.98 62.95 6.95 63.01 6.91 63.07 6.86 63.12 6.82 63.17 6.78 63.22 6.73 63.27 6.68 63.31 6.63 63.36 6.57 63.4 6.52 63.44 6.46 63.48 6.4 63.51 6.33 63.54 6.27 63.57 6.21 63.6 6.14 63.62 6.07 63.64 6.01 63.66 5.94 63.67 5.87 63.68 5.8 63.69 5.74 63.69 5.67 63.69 5.6 63.69 5.54 63.69 5.47 63.68 5.4 63.67 5.33 63.66 5.26 63.64 5.2 63.62 5.13 63.6 5.07 63.57 5 63.54 4.94 63.51 4.88 63.48 4.82 63.44 4.76 63.4 4.71 63.36 4.66 63.31 4.61 63.27 4.56 63.22 4.52 63.17 4.47 63.12 4.43 63.07 4.39 63.01 4.36 62.95 4.32 62.89 4.29 62.83 4.26 62.77 4.24 62.7 4.21 62.63 4.19 62.57 4.18 62.5 4.16 62.43 4.15 62.36 4.14 62.3 4.14 62.23 4.14 62.16 4.14 62.09 4.14 62.02 4.15 61.95 4.16 61.88 4.18 61.81 4.2 61.74 4.22 61.67 4.25 61.6 4.27 61.54 4.3 61.47 4.34 61.41 4.38 61.34 4.42 61.28 4.46 61.23 4.5 61.17 4.55 61.12 4.6 61.07 4.65 61.02 4.7 60.98 4.76 60.93 4.82 60.89 4.88 60.85 4.94 60.82 5.01 60.78 5.08 60.75 5.14 60.73 5.21 60.7 5.28 60.68 5.35 60.67 5.42 60.65 5.49 60.64 5.56 60.64 5.63 60.63 5.7 60.63 5.77 60.64 5.84 60.64 5.91 60.65 5.99 60.67 6.06 60.68 6.13 60.7 6.2 60.73 6.26 60.75 6.33 60.78 6.4 60.82 6.46 60.85 6.52 60.89 6.58 60.93 6.63 60.98 6.69 61.02 6.74 61.07 6.79 61.12 6.83 61.17 6.88 61.23 6.92 61.28 6.96 61.34 7 61.41 7.03 61.47 7.07 61.54 7.09 61.6 7.12 61.67 7.14 61.74 7.16 61.81 7.17 61.88 7.18 61.95 7.19 62.02 7.2 62.09 7.2 62.16"/><polygon class="cls-4" points="9.29 25.46 9.29 23.99 9 23.7 8.98 23.68 8.96 23.67 8.95 23.65 8.94 23.63 8.92 23.61 8.91 23.59 8.9 23.57 8.89 23.55 8.88 23.53 8.87 23.51 8.86 23.48 8.85 23.46 8.85 23.44 8.84 23.41 8.84 23.39 8.83 23.37 8.83 23.34 8.83 23.32 8.83 23.3 8.83 9.68 8.83 9.65 8.83 9.63 8.83 9.61 8.84 9.59 8.84 9.56 8.85 9.54 8.85 9.52 8.86 9.49 8.87 9.47 8.88 9.45 8.89 9.43 8.9 9.41 8.91 9.39 8.92 9.37 8.94 9.35 8.95 9.33 8.96 9.31 8.98 9.29 8.99 9.28 9.25 9.02 9.25 7.32 1.81 7.32 1.81 9.02 2.06 9.28 2.08 9.29 2.09 9.31 2.11 9.33 2.12 9.35 2.13 9.37 2.15 9.39 2.16 9.41 2.17 9.43 2.18 9.45 2.19 9.47 2.2 9.49 2.2 9.52 2.21 9.54 2.21 9.56 2.22 9.59 2.22 9.61 2.22 9.63 2.23 9.65 2.23 9.68 2.23 23.3 2.23 23.32 2.22 23.34 2.22 23.37 2.22 23.39 2.21 23.41 2.21 23.44 2.2 23.46 2.19 23.48 2.19 23.51 2.18 23.53 2.17 23.55 2.16 23.57 2.15 23.59 2.13 23.61 2.12 23.63 2.1 23.65 2.09 23.67 2.08 23.68 2.06 23.7 1.76 23.99 1.76 25.46 1.77 25.47 1.77 25.48 1.77 25.5 1.77 25.51 1.77 25.52 1.78 25.54 1.78 25.55 1.78 25.56 1.79 25.57 1.79 25.59 1.8 25.6 1.81 25.61 1.81 25.62 1.82 25.63 1.83 25.64 1.84 25.65 1.84 25.66 1.85 25.66 1.86 25.67 1.87 25.68 1.88 25.69 1.89 25.7 1.9 25.7 1.91 25.71 1.93 25.72 1.94 25.72 1.95 25.73 1.96 25.73 1.97 25.73 1.99 25.74 2 25.74 2.01 25.74 2.02 25.74 2.04 25.74 2.05 25.74 9.01 25.74 9.02 25.74 9.03 25.74 9.04 25.74 9.06 25.74 9.07 25.74 9.08 25.73 9.09 25.73 9.11 25.73 9.12 25.72 9.13 25.72 9.14 25.71 9.15 25.7 9.16 25.7 9.17 25.69 9.18 25.68 9.19 25.67 9.2 25.66 9.21 25.66 9.22 25.65 9.23 25.64 9.23 25.63 9.24 25.62 9.25 25.61 9.26 25.6 9.26 25.59 9.27 25.57 9.27 25.56 9.28 25.55 9.28 25.54 9.28 25.52 9.29 25.51 9.29 25.5 9.29 25.48 9.29 25.47 9.29 25.46"/><rect class="cls-3" x="12.73" y="51.67" width="0.85" height="0.85"/><rect class="cls-3" x="12.73" y="50.23" width="0.85" height="0.85"/><rect class="cls-3" x="12.73" y="48.79" width="0.85" height="0.85"/><rect class="cls-3" x="12.73" y="47.35" width="0.85" height="0.85"/><path class="cls-2" d="M392.85,208.57a.74.74,0,1,0,.74-.73A.74.74,0,0,0,392.85,208.57Z" transform="translate(-387.92 -146.41)"/><line class="cls-2" x1="5.92" y1="75.88" x2="5.92" y2="74.12"/><line class="cls-2" x1="2.98" y1="80.88" x2="2.98" y2="74.12"/><line class="cls-2" x1="15.61" y1="76.94" x2="17.43" y2="76.94"/><line class="cls-2" x1="15.61" y1="78.21" x2="17.43" y2="78.21"/><path class="cls-1" d="M396,174.72h0a37.9,37.9,0,0,0-.36,14.28.42.42,0,0,0,.42.35h1.54A.42.42,0,0,0,398,189a37.85,37.85,0,0,0-.36-14.27.85.85,0,0,0-1.66,0Z" transform="translate(-387.92 -146.41)"/></g></svg>