<svg id="e8ArpafNmGZ1" xmlns="http://www.w3.org/2000/svg" xmlns:xlink="http://www.w3.org/1999/xlink" viewBox="0 0 29.25 67.63" shape-rendering="geometricPrecision" text-rendering="geometricPrecision"><rect width="28.38" height="66.78" rx="0" ry="0" transform="translate(.41 0.425)" fill="#a6c4d1" stroke="#00557c" stroke-width="0.85"/><path d="" transform="translate(-358.31-153.27)" fill="#a6c4d1" fill-rule="evenodd" stroke="#00557c" stroke-width="0.85"/><rect width="6.41" height="17.43" rx="0" ry="0" transform="translate(19.96 10.12)" fill="#d9e6eb"/><polyline points="14.6,31.57 15.8,31.57 15.8,30.39 14.6,30.39 14.6,31.57" fill="#d9edf5" fill-rule="evenodd" stroke="#a6c4d1" stroke-width="0.23"/><polyline points="14.6,30.39 15.8,30.39 15.8,29.19 14.6,29.19 14.6,30.39" fill="#d9edf5" fill-rule="evenodd" stroke="#a6c4d1" stroke-width="0.23"/><polyline points="19.01,38.69 20.22,38.69 20.22,37.51 19.01,37.51 19.01,38.69" fill="#d9edf5" fill-rule="evenodd" stroke="#a6c4d1" stroke-width="0.23"/><polyline points="20.68,8.68 20.68,7.48 19.5,7.48 19.5,8.68 20.68,8.68" fill="#d9edf5" fill-rule="evenodd" stroke="#a6c4d1" stroke-width="0.23"/><polyline points="19.5,8.68 19.5,7.48 18.3,7.48 18.3,8.68 19.5,8.68" fill="#d9edf5" fill-rule="evenodd" stroke="#a6c4d1" stroke-width="0.23"/><polyline points="21.88,8.68 21.88,7.48 20.68,7.48 20.68,8.68 21.88,8.68" fill="#d9edf5" fill-rule="evenodd" stroke="#a6c4d1" stroke-width="0.23"/><line x1="7.53" y1="3.49" x2="0.43" y2="3.49" fill="none" stroke="#00557c" stroke-width="0.85"/><line x1="17.39" y1="3.49" x2="17.39" y2="67.21" fill="#a6c4d1" stroke="#00557c" stroke-width="0.85"/><line x1="6.14" y1="8.91" x2="29" y2="8.91" fill="none" stroke="#00557c" stroke-width="0.23"/><line x1="6.14" y1="7.24" x2="29" y2="7.24" fill="none" stroke="#00557c" stroke-width="0.23"/><rect width="8.01" height="2.26" rx="0" ry="0" transform="translate(19.09 4.53)" fill="#00557c"/><path d="M367.46,158.88c0,.552285-.447715,1-1,1s-1-.447715-1-1s.447715-1,1-1s1,.447715,1,1Z" transform="translate(-358.31-153.27)" fill="none" fill-rule="evenodd" stroke="#00557c" stroke-width="0.23"/><rect width="9.51" height="17.23" rx="0" ry="0" transform="translate(.43 49.41)" fill="none" stroke="#00557c" stroke-width="0.23"/><rect width="9.51" height="6.29" rx="0" ry="0" transform="translate(.43 53.2)" fill="none" stroke="#00557c" stroke-width="0.23"/><rect width="5.51" height="12.3" rx="0" ry="0" transform="translate(2.69 54.34)" fill="#a6c4d1" stroke="#00557c" stroke-width="0.23"/><path d="M363.45,209.73c.037167.360827-.134384.711326-.442135.903334s-.69798.192008-1.00573,0-.479302-.542507-.442135-.903334c.049898-.484419.458017-.85266.945-.85266s.895102.368241.945.85266Z" transform="translate(-358.31-153.27)" fill="#a6c4d1" fill-rule="evenodd" stroke="#00557c" stroke-width="0.23"/><path d="M366,209.73c0,.380195-.229024.722953-.580278.868447s-.755564.065071-1.024402-.203767-.349261-.673149-.203767-1.024402.488252-.580278.868447-.580278c.516889.005413.934587.423111.94.94Z" transform="translate(-358.31-153.27)" fill="#a6c4d1" fill-rule="evenodd" stroke="#00557c" stroke-width="0.23"/><path d="M363.45,217.89c.004054.385123-.224818.734585-.579468.884783s-.764892.071407-1.038667-.199487-.356903-.680278-.210467-1.036498.493457-.588777.878602-.588798c.52079-.000029.944518.419239.95.94Z" transform="translate(-358.31-153.27)" fill="#a6c4d1" fill-rule="evenodd" stroke="#00557c" stroke-width="0.23"/><path d="M366,217.89c.026424.516749-.369741.957691-.886361.986542s-.959417-.36524-.990694-.881718.360729-.961122.877055-.994824c.251065-.016388.49822.068557.686164.235827s.300987.402902.313836.654173Z" transform="translate(-358.31-153.27)" fill="#a6c4d1" fill-rule="evenodd" stroke="#00557c" stroke-width="0.23"/><rect width="5.51" height="0.99" rx="0" ry="0" transform="translate(2.69 58.09)" fill="#a6c4d1" stroke="#00557c" stroke-width="0.23"/><rect width="5.51" height="0.99" rx="0" ry="0" transform="translate(2.69 62.04)" fill="#a6c4d1" stroke="#00557c" stroke-width="0.23"/><line x1="0" y1="18.795" x2="0" y2="-18.795" transform="translate(6.01 22.285)" fill="none" stroke="#00557c" stroke-width="0.85"/><line x1="-11.4" y1="0" x2="11.4" y2="0" transform="translate(17.41 3.49)" fill="none" stroke="#00557c" stroke-width="0.85"/><line x1="-11.39" y1="0" x2="11.39" y2="0" transform="translate(17.4 41.08)" fill="none" stroke="#00557c" stroke-width="0.85" stroke-linecap="square"/></svg>
