<svg xmlns="http://www.w3.org/2000/svg" viewBox="0 0 13.61 57.54"><defs><style>.cls-1,.cls-9{fill:#a6c4d1;}.cls-2,.cls-3,.cls-5,.cls-8{fill:none;}.cls-2,.cls-3,.cls-5,.cls-8,.cls-9{stroke:#00557c;}.cls-2{stroke-width:0.85px;}.cls-3{stroke-width:0.23px;}.cls-4{fill:#ffed00;}.cls-5{stroke-miterlimit:10;}.cls-5,.cls-8,.cls-9{stroke-width:0.37px;}.cls-6{fill:#00557c;}.cls-7{fill:#d9edf5;}</style></defs><g id="Original-2" data-name="Original"><rect class="cls-1" x="0.43" y="0.43" width="12.76" height="56.69"/><rect class="cls-2" x="0.43" y="0.43" width="12.76" height="56.69"/><path class="cls-1" d="M391.26,174.27" transform="translate(-390.05 -158.32)"/><path class="cls-3" d="M391.26,174.27" transform="translate(-390.05 -158.32)"/><path class="cls-1" d="M391.26,177.8" transform="translate(-390.05 -158.32)"/><path class="cls-3" d="M391.26,177.8" transform="translate(-390.05 -158.32)"/><path class="cls-1" d="M391.26,181.3" transform="translate(-390.05 -158.32)"/><path class="cls-3" d="M391.26,181.3" transform="translate(-390.05 -158.32)"/><polygon class="cls-4" points="12.13 13.26 12.13 9.18 1.48 9.18 1.48 13.26 0.46 13.26 0.46 0.43 6.8 0.43 13.15 0.43 13.15 13.26 12.13 13.26"/><polygon class="cls-5" points="12.13 13.26 12.13 9.18 1.48 9.18 1.48 13.26 0.46 13.26 0.46 0.43 6.8 0.43 13.15 0.43 13.15 13.26 12.13 13.26"/><rect class="cls-5" x="1.51" y="10.7" width="10.62" height="2.01"/><rect class="cls-5" x="4.12" y="10.7" width="1.95" height="1.95"/><rect class="cls-5" x="7.54" y="10.7" width="1.95" height="1.95"/><polygon class="cls-4" points="12.13 44.3 12.13 48.38 1.48 48.38 1.48 44.3 0.46 44.3 0.46 57.12 6.8 57.12 13.15 57.12 13.15 44.3 12.13 44.3"/><polygon class="cls-5" points="12.13 44.3 12.13 48.38 1.48 48.38 1.48 44.3 0.46 44.3 0.46 57.12 6.8 57.12 13.15 57.12 13.15 44.3 12.13 44.3"/><rect class="cls-5" x="1.51" y="44.85" width="10.62" height="2"/><rect class="cls-6" x="2.61" y="0.42" width="8.5" height="2.5"/><rect class="cls-7" x="1.22" y="31.81" width="1.67" height="1.68"/><rect class="cls-7" x="1.22" y="33.85" width="1.67" height="1.67"/><rect class="cls-1" x="2.59" y="17.63" width="6.46" height="11.55" rx="1.41"/><rect class="cls-8" x="2.59" y="17.63" width="6.46" height="11.55" rx="1.41"/><rect class="cls-9" x="4.25" y="16.46" width="3.12" height="13.96"/><line class="cls-9" x1="7.37" y1="19.87" x2="4.25" y2="19.87"/><line class="cls-9" x1="7.37" y1="27.05" x2="4.25" y2="27.05"/><path class="cls-1" d="M395.87,196.51a1.28,1.28,0,1,0-1.26,1.29,1.28,1.28,0,0,0,1.26-1.29" transform="translate(-390.05 -158.32)"/><path class="cls-3" d="M395.87,196.51a1.28,1.28,0,1,0-1.26,1.29,1.28,1.28,0,0,0,1.26-1.29" transform="translate(-390.05 -158.32)"/><rect class="cls-2" x="0.43" y="0.43" width="12.76" height="56.69"/></g></svg>