<svg xmlns="http://www.w3.org/2000/svg" viewBox="0 0 19.27 36.28"><defs><style>.cls-1,.cls-2,.cls-4{fill:#a6c4d1;}.cls-1,.cls-10,.cls-2,.cls-3,.cls-4,.cls-6,.cls-7,.cls-8,.cls-9{stroke:#00557c;}.cls-1,.cls-2{stroke-width:0.85px;}.cls-10,.cls-2,.cls-4,.cls-5,.cls-6,.cls-8{fill-rule:evenodd;}.cls-3,.cls-6,.cls-7,.cls-8{fill:none;}.cls-3,.cls-4,.cls-5,.cls-6{stroke-width:0.23px;}.cls-5{fill:#d9edf5;stroke:#a6c4d1;}.cls-10,.cls-7,.cls-8,.cls-9{stroke-width:0.25px;}.cls-10,.cls-9{fill:#00557c;}</style></defs><g id="Original-2" data-name="Original"><rect class="cls-1" x="0.43" y="0.43" width="18.42" height="35.43"/><path class="cls-2" d="M396.85,187.09" transform="translate(-387.21 -168.94)"/><line class="cls-3" x1="18.85" y1="17.43" x2="0.46" y2="17.43"/><path class="cls-4" d="M396.87,177.87" transform="translate(-387.21 -168.94)"/><polyline class="cls-5" points="3.7 3.89 4.61 3.89 4.61 2.98 3.7 2.98 3.7 3.89"/><polyline class="cls-5" points="3.7 2.98 4.61 2.98 4.61 2.08 3.7 2.08 3.7 2.98"/><polyline class="cls-5" points="3.7 4.8 4.61 4.8 4.61 3.89 3.7 3.89 3.7 4.8"/><path class="cls-6" d="M390,185.54a.36.36,0,0,0,.37-.37v-3a.36.36,0,0,0-.37-.37h-.15a.37.37,0,0,0-.37.37v3a.37.37,0,0,0,.37.37Z" transform="translate(-387.21 -168.94)"/><rect class="cls-7" x="4.02" y="13.67" width="1.06" height="1.87"/><path class="cls-8" d="M392.39,183.55" transform="translate(-387.21 -168.94)"/><rect class="cls-9" x="4.29" y="12.91" width="0.52" height="1.87"/><path class="cls-10" d="M391.76,182.79" transform="translate(-387.21 -168.94)"/></g></svg>