<svg xmlns="http://www.w3.org/2000/svg" viewBox="0 0 12.2 36.29"><defs><style>.cls-1,.cls-2,.cls-4{fill:#a6c4d1;}.cls-1,.cls-2,.cls-3,.cls-4{stroke:#00557c;}.cls-1,.cls-2{stroke-width:0.85px;}.cls-2,.cls-4,.cls-5{fill-rule:evenodd;}.cls-3{fill:none;}.cls-3,.cls-4,.cls-5,.cls-6{stroke-width:0.23px;}.cls-5,.cls-6{fill:#d9edf5;stroke:#a6c4d1;}</style></defs><g id="Original-2" data-name="Original"><rect class="cls-1" x="0.43" y="0.43" width="11.35" height="35.44"/><path class="cls-2" d="M396.85,187.09" transform="translate(-390.75 -168.94)"/><line class="cls-3" x1="11.77" y1="17.43" x2="0.43" y2="17.43"/><path class="cls-4" d="M396.85,177.87" transform="translate(-390.75 -168.94)"/><polyline class="cls-5" points="1.48 3.83 2.39 3.83 2.39 2.93 1.48 2.93 1.48 3.83"/><polyline class="cls-5" points="1.48 2.93 2.39 2.93 2.39 2.02 1.48 2.02 1.48 2.93"/><polyline class="cls-5" points="1.48 4.74 2.39 4.74 2.39 3.83 1.48 3.83 1.48 4.74"/><polyline class="cls-5" points="1.48 6.55 2.39 6.55 2.39 5.64 1.48 5.64 1.48 6.55"/><polyline class="cls-5" points="1.48 5.64 2.39 5.64 2.39 4.74 1.48 4.74 1.48 5.64"/><polyline class="cls-5" points="1.48 7.46 2.39 7.46 2.39 6.55 1.48 6.55 1.48 7.46"/><polyline class="cls-5" points="1.48 8.39 2.39 8.39 2.39 7.46 1.48 7.46 1.48 8.39"/><polyline class="cls-5" points="1.48 9.25 2.39 9.25 2.39 8.37 1.48 8.37 1.48 9.25"/><polyline class="cls-5" points="1.48 10.17 2.39 10.17 2.39 9.28 1.48 9.28 1.48 10.17"/><polyline class="cls-5" points="3.44 13.24 4.34 13.24 4.34 12.35 3.44 12.35 3.44 13.24"/><polyline class="cls-5" points="3.44 12.35 4.34 12.35 4.34 11.44 3.44 11.44 3.44 12.35"/><polyline class="cls-5" points="3.44 14.15 4.34 14.15 4.34 13.24 3.44 13.24 3.44 14.15"/><rect class="cls-6" x="3.44" y="15.06" width="0.91" height="0.91"/><polyline class="cls-5" points="3.44 15.06 4.34 15.06 4.34 14.15 3.44 14.15 3.44 15.06"/></g></svg>