<svg id="eqHeu2pQAET1" xmlns="http://www.w3.org/2000/svg" xmlns:xlink="http://www.w3.org/1999/xlink" viewBox="0 0 14 36.29" shape-rendering="geometricPrecision" text-rendering="geometricPrecision"><polyline points="23.09,0.42 34.44,0.42 34.44,35.87 23.09,35.87 23.09,0.42" transform="translate(-22 0)" fill="#a6c4d1" fill-rule="evenodd" stroke="#00557c" stroke-width="0.85" stroke-linecap="square"/><path d="" transform="translate(-378.75-168.88)" fill="#a6c4d1" fill-rule="evenodd" stroke="#00557c" stroke-width="0.85"/><rect width="11.35" height="17.01" rx="0" ry="0" transform="translate(1.09 0.43)" fill="none" stroke="#00557c" stroke-width="0.23"/><path d="" transform="translate(-378.75-168.88)" fill="#a6c4d1" fill-rule="evenodd" stroke="#00557c" stroke-width="0.23"/><rect width="0.47" height="8.6" rx="0" ry="0" transform="translate(4.56 3.19)" fill="#d9e6eb" stroke="#d9e6eb" stroke-width="0.23"/><path d="" transform="translate(-378.75-168.88)" fill="#d9e6eb" fill-rule="evenodd" stroke="#d9e6eb" stroke-width="0.23"/><polyline points="27.64,2.16 33.58,2.16 33.58,3.69 27.64,3.69 27.64,2.16" transform="translate(-22 0)" fill="#00557c" fill-rule="evenodd"/><path d="" transform="translate(-378.75-168.88)" fill="#00557c" fill-rule="evenodd"/><polyline points="24.14,3.83 25.05,3.83 25.05,2.93 24.14,2.93 24.14,3.83" transform="translate(-22 0)" fill="#d9edf5" fill-rule="evenodd" stroke="#a6c4d1" stroke-width="0.23"/><polyline points="24.14,2.93 25.05,2.93 25.05,2.02 24.14,2.02 24.14,2.93" transform="translate(-22 0)" fill="#d9edf5" fill-rule="evenodd" stroke="#a6c4d1" stroke-width="0.23"/><polyline points="24.14,4.74 25.05,4.74 25.05,3.83 24.14,3.83 24.14,4.74" transform="translate(-22 0)" fill="#d9edf5" fill-rule="evenodd" stroke="#a6c4d1" stroke-width="0.23"/><polyline points="24.14,6.55 25.05,6.55 25.05,5.64 24.14,5.64 24.14,6.55" transform="translate(-22 0)" fill="#d9edf5" fill-rule="evenodd" stroke="#a6c4d1" stroke-width="0.23"/><polyline points="24.14,5.64 25.05,5.64 25.05,4.74 24.14,4.74 24.14,5.64" transform="translate(-22 0)" fill="#d9edf5" fill-rule="evenodd" stroke="#a6c4d1" stroke-width="0.23"/><polyline points="24.14,7.46 25.05,7.46 25.05,6.55 24.14,6.55 24.14,7.46" transform="translate(-22 0)" fill="#d9edf5" fill-rule="evenodd" stroke="#a6c4d1" stroke-width="0.23"/><polyline points="24.14,8.39 25.05,8.39 25.05,7.46 24.14,7.46 24.14,8.39" transform="translate(-22 0)" fill="#d9edf5" fill-rule="evenodd" stroke="#a6c4d1" stroke-width="0.23"/><polyline points="24.14,9.25 25.05,9.25 25.05,8.37 24.14,8.37 24.14,9.25" transform="translate(-22 0)" fill="#d9edf5" fill-rule="evenodd" stroke="#a6c4d1" stroke-width="0.23"/><polyline points="24.14,10.17 25.05,10.17 25.05,9.28 24.14,9.28 24.14,10.17" transform="translate(-22 0)" fill="#d9edf5" fill-rule="evenodd" stroke="#a6c4d1" stroke-width="0.23"/><path d="M382.24,185.48c.09813,0,.192241-.038982.26163-.10837s.10837-.1635.10837-.26163v-3c-.005253-.20213-.16787-.364747-.37-.37h-.16c-.20213.005253-.364747.16787-.37.37v3c-.000036.099888.040315.195546.111882.26523s.168267.10747.268118.10477h.15Z" transform="translate(-378.75-168.88)" fill="none" fill-rule="evenodd" stroke="#00557c" stroke-width="0.23"/><rect width="1.06" height="1.87" rx="0" ry="0" transform="translate(4.68 13.67)" fill="none" stroke="#00557c" stroke-width="0.25"/><path d="" transform="translate(-378.75-168.88)" fill="none" fill-rule="evenodd" stroke="#00557c" stroke-width="0.25"/><rect width="0.52" height="1.87" rx="0" ry="0" transform="translate(4.95 12.92)" fill="#00557c" stroke="#00557c" stroke-width="0.25"/><path d="" transform="translate(-378.75-165.88)" fill="#00557c" fill-rule="evenodd" stroke="#00557c" stroke-width="0.25"/></svg>
