<svg xmlns="http://www.w3.org/2000/svg" viewBox="0 0 34.32 71.94"><defs><style>.cls-1,.cls-2{fill:#a6c4d1;}.cls-1,.cls-2,.cls-4,.cls-5,.cls-6{stroke:#00557c;}.cls-1{stroke-width:0.85px;}.cls-2{stroke-width:0.23px;}.cls-3{fill:#d9edf5;}.cls-4,.cls-5,.cls-6{fill:none;}.cls-4,.cls-5{stroke-miterlimit:1;}.cls-4{stroke-width:0.28px;}.cls-5,.cls-6{stroke-width:0.48px;}.cls-7{fill:#00557c;}</style></defs><g id="Original-2" data-name="Original"><rect class="cls-1" x="0.43" y="0.43" width="33.47" height="71.09"/><line class="cls-1" x1="0.43" y1="36.04" x2="33.9" y2="36.04"/><path class="cls-2" d="M387.22,205a1.94,1.94,0,1,1,1.94,1.94A1.94,1.94,0,0,1,387.22,205Z" transform="translate(-379.69 -151.12)"/><path class="cls-3" d="M388.26,205a.9.9,0,1,1,.9.89A.9.9,0,0,1,388.26,205Z" transform="translate(-379.69 -151.12)"/><rect class="cls-3" x="4.29" y="11.51" width="25.75" height="10.08"/><path class="cls-4" d="M386.53,177.2a2.05,2.05,0,1,1,2.05,2.05A2.05,2.05,0,0,1,386.53,177.2Z" transform="translate(-379.69 -151.12)"/><path class="cls-4" d="M386.53,182.72a2.05,2.05,0,1,1,2.05,2.05A2.05,2.05,0,0,1,386.53,182.72Z" transform="translate(-379.69 -151.12)"/><path class="cls-4" d="M392,177.2a2,2,0,1,1,2,2.05A2,2,0,0,1,392,177.2Z" transform="translate(-379.69 -151.12)"/><path class="cls-4" d="M392,182.72a2,2,0,1,1,2,2.05A2,2,0,0,1,392,182.72Z" transform="translate(-379.69 -151.12)"/><path class="cls-4" d="M397.62,177.2a2.05,2.05,0,1,1,2.05,2.05A2.05,2.05,0,0,1,397.62,177.2Z" transform="translate(-379.69 -151.12)"/><path class="cls-4" d="M397.62,182.72a2.05,2.05,0,1,1,2.05,2.05A2.05,2.05,0,0,1,397.62,182.72Z" transform="translate(-379.69 -151.12)"/><path class="cls-4" d="M403.07,177.2a2.05,2.05,0,1,1,2.05,2.05A2.05,2.05,0,0,1,403.07,177.2Z" transform="translate(-379.69 -151.12)"/><path class="cls-4" d="M403.07,182.72a2.05,2.05,0,1,1,2.05,2.05A2.05,2.05,0,0,1,403.07,182.72Z" transform="translate(-379.69 -151.12)"/><rect class="cls-5" x="2.7" y="6.72" width="28.91" height="39.91"/><path class="cls-6" d="M382.43,157.85a66.44,66.44,0,0,1,28.85,0" transform="translate(-379.69 -151.12)"/><path class="cls-6" d="M382.43,198a66.42,66.42,0,0,0,28.85,0" transform="translate(-379.69 -151.12)"/><rect class="cls-7" x="12.12" y="7.9" width="10.09" height="2.68"/></g></svg>