<svg xmlns="http://www.w3.org/2000/svg" viewBox="0 0 34.87 68.6"><defs><style>.cls-1,.cls-7{fill:#a6c4d1;}.cls-1,.cls-6,.cls-7,.cls-8,.cls-9{stroke:#00557c;}.cls-1,.cls-9{stroke-miterlimit:3.86;stroke-width:0.85px;}.cls-2{fill:#d9edf5;}.cls-3{fill:#00557c;}.cls-4{fill:#d9e6eb;}.cls-5,.cls-6,.cls-8,.cls-9{fill:none;}.cls-5{stroke:#000;stroke-linecap:round;stroke-linejoin:round;stroke-width:0.36px;}.cls-6,.cls-7{stroke-width:0.37px;}.cls-8{stroke-width:0.37px;}</style></defs><g id="Original"><rect class="cls-1" x="0.43" y="0.43" width="34.02" height="67.75" rx="0.28"/><rect class="cls-2" x="31.46" y="6.23" width="1.42" height="1.42"/><rect class="cls-2" x="31.46" y="9.07" width="1.42" height="1.42"/><rect class="cls-2" x="31.46" y="11.9" width="1.42" height="1.42"/><rect class="cls-2" x="31.46" y="14.7" width="1.42" height="1.42"/><rect class="cls-2" x="31.46" y="17.57" width="1.42" height="1.42"/><rect class="cls-2" x="31.46" y="20.41" width="1.42" height="1.42"/><rect class="cls-3" x="2.04" y="1.13" width="12.36" height="3.4"/><polygon class="cls-4" points="31.89 42.17 33.14 42.17 33.14 37.8 33.02 37.8 33.02 24.59 31.89 24.59 31.89 42.17"/><line class="cls-5" x1="31.55" y1="42.33" x2="33.36" y2="42.33"/><rect class="cls-6" x="2.7" y="56.47" width="6.78" height="4.99"/><rect class="cls-6" x="2.82" y="57.71" width="6.55" height="3.06"/><path class="cls-6" d="M412.78,190.59v-3.24a4.31,4.31,0,0,0,0-4.86V177H411v4.77l-.16,0-.15.05-.15,0-.15.05-.13.05-.14,0-.13.05-.13,0-.12.05-.12.06-.11.05-.11,0-.11.06-.1.05-.1.06-.09.06-.09.05-.09.06-.08.05-.08.06-.08,0-.07.06-.07.05-.07.06-.06,0-.06.05-.06.06-.05,0s0,0-.05.05l-.05,0-.05.05,0,.05,0,0,0,.05,0,0,0,.05,0,0,0,0,0,0,0,0s0,0,0,0l0,0s0,0,0,.05l0,0a.05.05,0,0,1,0,0s0,0,0,0v0l0,0,0,0s0,0,0,0l0,0v0a.08.08,0,0,0,0,0l0,.05v.08a.06.06,0,0,0,0,0v.12a.09.09,0,0,1,0,0v.32a.08.08,0,0,1,0,0v.09s0,0,0,0a.08.08,0,0,0,0,0v.08l0,0s0,0,0,0,0,0,0,.05l0,0s0,0,0,0l0,0,0,0v0a.08.08,0,0,1,0,0l0,.05,0,0,0,0,0,.05,0,0,0,.05,0,0,0,.05,0,0,0,0,0,.05,0,.05,0,0,0,.05.05,0,.05.05s0,0,.05.05l.05,0,.06.05.06.06.06,0,.07.05.07.06.07.06.08,0,.08.06.08.05.09.06.09,0,.09.06.1.05.1.06.11,0,.11.06.11.05.12.05.12.06.13.05.13.05.14,0,.13.05.15,0,.15.05.15,0,.16.05v2.56h-.34v4.53h2.49v-4.53Z" transform="translate(-379.42 -152.79)"/><line class="cls-6" x1="3.24" y1="55.67" x2="1.56" y2="55.67"/><rect class="cls-7" x="3.24" y="50.51" width="5.7" height="12.53"/><line class="cls-6" x1="1.56" y1="62.19" x2="3.24" y2="62.19"/><line class="cls-6" x1="10.63" y1="55.67" x2="8.95" y2="55.67"/><polygon class="cls-4" points="27.47 21.06 20.1 21.06 20.1 22.76 20.49 22.76 20.49 37.22 27.07 37.22 27.07 22.76 27.47 22.76 27.47 21.06"/><line class="cls-8" x1="21.51" y1="14.24" x2="22.93" y2="14.24"/><rect class="cls-8" x="21.51" y="11.36" width="1.42" height="4.05"/><rect class="cls-6" x="20.38" y="8.93" width="6.8" height="10.21" rx="0.23"/><rect class="cls-6" x="21.09" y="10.91" width="2.27" height="6.24"/><polyline class="cls-9" points="0.42 46.74 11.76 46.74 11.76 67.89 11.76 67.9 11.76 67.9 11.76 67.91 11.77 67.92 11.77 67.92 11.77 67.93 11.77 67.94 11.77 67.94 11.77 67.95 11.77 67.96 11.77 67.96 11.78 67.97 11.78 67.98 11.78 67.98 11.78 67.99 11.78 68 11.79 68 11.79 68.01 11.79 68.02 11.79 68.02 11.8 68.03 11.8 68.03 11.8 68.04 11.81 68.04 11.81 68.05 11.82 68.06 11.82 68.06 11.82 68.07 11.83 68.07 11.83 68.08 11.84 68.08 11.84 68.09 11.85 68.09 11.85 68.1 11.86 68.1 11.86 68.11 11.87 68.11 11.87 68.12 11.88 68.12 11.88 68.12 11.89 68.13 11.9 68.13 11.9 68.14 11.91 68.14 11.91 68.14 11.92 68.14 11.93 68.15 11.93 68.15 11.94 68.15 11.95 68.16 11.95 68.16 11.96 68.16 11.97 68.16 11.97 68.17 11.98 68.17 11.99 68.17 11.99 68.17 12 68.17 12.01 68.17 12.01 68.17 12.02 68.17 12.03 68.17 12.03 68.17 12.04 68.17"/><polyline class="cls-9" points="16.18 0.42 16.18 0.42 16.17 0.43 16.16 0.43 16.16 0.43 16.16 0.43 16.15 0.43 16.15 0.43 16.14 0.43 16.14 0.43 16.13 0.43 16.13 0.43 16.12 0.43 16.12 0.43 16.11 0.43 16.11 0.43 16.1 0.44 16.1 0.44 16.09 0.44 16.09 0.44 16.09 0.44 16.08 0.44 16.08 0.45 16.07 0.45 16.07 0.45 16.06 0.45 16.06 0.45 16.05 0.46 16.05 0.46 16.04 0.46 16.04 0.47 16.04 0.47 16.03 0.47 16.02 0.47 16.02 0.48 16.02 0.48 16.01 0.48 16.01 0.49 16 0.49 16 0.49 15.99 0.5 15.99 0.5 15.99 0.5 15.98 0.51 15.98 0.51 15.98 0.52 15.97 0.52 15.97 0.53 15.96 0.53 15.96 0.54 15.96 0.54 15.95 0.54 15.95 0.55 15.95 0.55 15.94 0.56 15.94 0.56 15.94 0.57 15.94 0.58 15.93 0.58 15.93 0.59 15.93 0.59 15.92 0.6 15.92 0.6 15.92 0.61 15.92 0.62 15.91 0.62 15.91 0.63 15.91 0.64 15.91 0.64 15.91 0.65 15.91 0.66 15.91 0.66 15.9 0.67 15.9 0.68 15.9 0.69 15.9 0.69 15.9 0.7 15.9 0.71 15.9 37.55 15.9 37.56 15.9 37.58 15.9 37.59 15.91 37.6 15.91 37.61 15.91 37.62 15.91 37.63 15.91 37.64 15.92 37.65 15.92 37.66 15.93 37.67 15.93 37.68 15.94 37.69 15.95 37.7 15.95 37.71 15.96 37.72 15.96 37.73 15.97 37.74 15.98 37.75 15.99 37.75 15.99 37.76 16 37.77 16.01 37.78 16.02 37.78 16.03 37.79 16.04 37.8 16.05 37.8 16.06 37.81 16.07 37.81 16.08 37.81 16.09 37.82 16.1 37.82 16.11 37.83 16.12 37.83 16.13 37.83 16.14 37.83 16.15 37.84 16.16 37.84 16.18 37.84 16.19 37.84 25.67 37.84 25.67 67.89 25.67 67.9 25.67 67.91 25.67 67.91 25.67 67.92 25.67 67.93 25.67 67.93 25.67 67.94 25.67 67.95 25.67 67.95 25.68 67.96 25.68 67.97 25.68 67.97 25.68 67.98 25.68 67.99 25.69 67.99 25.69 68 25.69 68.01 25.69 68.01 25.7 68.02 25.7 68.02 25.7 68.03 25.71 68.03 25.71 68.04 25.71 68.05 25.72 68.05 25.72 68.06 25.72 68.06 25.73 68.06 25.73 68.07 25.73 68.07 25.74 68.08 25.74 68.08 25.75 68.09 25.75 68.09 25.75 68.09 25.76 68.1 25.76 68.1 25.77 68.11 25.77 68.11 25.77 68.11 25.78 68.12 25.78 68.12 25.79 68.12 25.79 68.13 25.8 68.13 25.8 68.13 25.8 68.13 25.81 68.14 25.81 68.14 25.82 68.14 25.82 68.14 25.83 68.15 25.83 68.15 25.84 68.15 25.84 68.15 25.85 68.16 25.85 68.16 25.86 68.16 25.86 68.16 25.86 68.16 25.87 68.16 25.87 68.16 25.88 68.17 25.88 68.17 25.89 68.17 25.89 68.17 25.9 68.17 25.9 68.17 25.91 68.17 25.91 68.17 25.92 68.17 25.92 68.17 25.93 68.17 25.93 68.17 25.94 68.17 25.94 68.17 25.95 68.17"/><path class="cls-9" d="M379.84,157.75c0,.2.09.28.29.28h11.05v21.26H380.13c-.2,0-.29.08-.29.29" transform="translate(-379.42 -152.79)"/><path class="cls-6" d="M384.18,164.41a1.14,1.14,0,0,0-.94,1.12v6.26a1.14,1.14,0,0,0,.94,1.12l2.27.4a1.13,1.13,0,0,0,1.33-1.12v-7.06a1.13,1.13,0,0,0-1.33-1.12Z" transform="translate(-379.42 -152.79)"/><polygon class="cls-6" points="6.81 21.71 5.37 21.71 4.65 22.96 5.37 24.21 6.81 24.21 7.54 22.96 6.81 21.71"/><polygon class="cls-6" points="6.81 7.54 5.37 7.54 4.65 8.79 5.37 10.04 6.81 10.04 7.54 8.79 6.81 7.54"/><path class="cls-6" d="M386,161.58a.53.53,0,0,0-.53-.53.53.53,0,0,0,0,1A.53.53,0,0,0,386,161.58Z" transform="translate(-379.42 -152.79)"/><path class="cls-6" d="M386,175.75a.53.53,0,0,0-.53-.53.52.52,0,0,0-.52.53.52.52,0,0,0,.52.52A.52.52,0,0,0,386,175.75Z" transform="translate(-379.42 -152.79)"/><polyline class="cls-6" points="8.95 50.71 10.63 50.71 10.63 66.02 1.56 66.02 1.56 50.71 3.24 50.71"/><line class="cls-6" x1="8.95" y1="62.19" x2="10.63" y2="62.19"/></g></svg>