<svg id="epy2ZW4SnFj1" xmlns="http://www.w3.org/2000/svg" xmlns:xlink="http://www.w3.org/1999/xlink" viewBox="0 0 12.5 36.5" shape-rendering="geometricPrecision" text-rendering="geometricPrecision"><g><rect width="11.35" height="35.44" rx="0" ry="0" transform="translate(.43 0.43)" fill="#a6c4d1" stroke="#00557c" stroke-width="0.85"/><rect width="11.35" height="35.44" rx="0" ry="0" transform="matrix(.487224 0 0-.044018 5.34 2.93)" fill="#00557c" stroke="#00557c" stroke-width="0.85"/><path d="" transform="translate(-390.75-168.94)" fill="#a6c4d1" fill-rule="evenodd" stroke="#00557c" stroke-width="0.85"/><line x1="11.77" y1="17.43" x2="0.43" y2="17.43" fill="none" stroke="#00557c" stroke-width="0.23"/><path d="" transform="translate(-390.75-168.94)" fill="#a6c4d1" fill-rule="evenodd" stroke="#00557c" stroke-width="0.23"/><polyline points="1.48,3.83 2.39,3.83 2.39,2.93 1.48,2.93 1.48,3.83" fill="#d9edf5" fill-rule="evenodd" stroke="#a6c4d1" stroke-width="0.23"/><polyline points="1.48,2.93 2.39,2.93 2.39,2.02 1.48,2.02 1.48,2.93" fill="#d9edf5" fill-rule="evenodd" stroke="#a6c4d1" stroke-width="0.23"/><polyline points="1.48,4.74 2.39,4.74 2.39,3.83 1.48,3.83 1.48,4.74" fill="#d9edf5" fill-rule="evenodd" stroke="#a6c4d1" stroke-width="0.23"/><polyline points="1.48,6.55 2.39,6.55 2.39,5.64 1.48,5.64 1.48,6.55" fill="#d9edf5" fill-rule="evenodd" stroke="#a6c4d1" stroke-width="0.23"/><polyline points="1.48,5.64 2.39,5.64 2.39,4.74 1.48,4.74 1.48,5.64" fill="#d9edf5" fill-rule="evenodd" stroke="#a6c4d1" stroke-width="0.23"/><polyline points="1.48,7.46 2.39,7.46 2.39,6.55 1.48,6.55 1.48,7.46" fill="#d9edf5" fill-rule="evenodd" stroke="#a6c4d1" stroke-width="0.23"/><rect width="4.11541" height="7.46313" rx="0" ry="0" transform="matrix(1.471947 0 0 1.27292 4.00917 5.46)" fill="#d9e6eb" stroke-width="0"/><g transform="matrix(.432173 0 0 0.43131 1.140457 18.753198)"><path d="M384.18,164.41c-.543024.096767-.938878.568423-.94,1.12v6.26c.001122.551577.396976,1.023233.94,1.12l2.27.4c.330761.059489.670838-.031332.927901-.247806s.404432-.536134.402099-.872194v-7.06c.002333-.33606-.145037-.655721-.402099-.872194s-.59714-.307295-.927901-.247806l-2.27.4Z" transform="translate(-379.42-156.79)" fill="none" stroke="#00557c" stroke-width="0.37"/><polygon points="6.81,21.71 5.37,21.71 4.65,22.96 5.37,24.21 6.81,24.21 7.54,22.96 6.81,21.71" transform="translate(0-4)" fill="none" stroke="#00557c" stroke-width="0.37"/><path d="M386,175.75c0-.292711-.237289-.53-.53-.53-.139663-.000026-.273465.05613-.371277.155823s-.151409.23454-.148723.374177c0,.287188.232812.52.52.52.139637.002686.274485-.050912.374177-.148723s.155849-.231614.155823-.371277Z" transform="translate(-379.42-156.79)" fill="none" stroke="#00557c" stroke-width="0.37"/><polygon points="6.81,7.54 5.37,7.54 4.65,8.79 5.37,10.04 6.81,10.04 7.54,8.79 6.81,7.54" transform="translate(0-4)" fill="none" stroke="#00557c" stroke-width="0.37"/><path d="M386,161.58c0-.292711-.237289-.53-.53-.53-.212216.074608-.354216.275051-.354216.5s.142.425392.354216.5c.270795.00174.499349-.200939.53-.47Z" transform="translate(-379.42-156.79)" fill="none" stroke="#00557c" stroke-width="0.37"/><rect width="4.165" height="8.946987" rx="0" ry="0" transform="matrix(2.085234 0 0 2.267471 1.988888 1.731474)" fill="none" stroke="#00557c" stroke-width="0.5"/></g><g transform="matrix(.432173 0 0 0.43131 5.890457 18.753198)"><path d="M384.18,164.41c-.543024.096767-.938878.568423-.94,1.12v6.26c.001122.551577.396976,1.023233.94,1.12l2.27.4c.330761.059489.670838-.031332.927901-.247806s.404432-.536134.402099-.872194v-7.06c.002333-.33606-.145037-.655721-.402099-.872194s-.59714-.307295-.927901-.247806l-2.27.4Z" transform="translate(-379.42-156.79)" fill="none" stroke="#00557c" stroke-width="0.37"/><polygon points="6.81,21.71 5.37,21.71 4.65,22.96 5.37,24.21 6.81,24.21 7.54,22.96 6.81,21.71" transform="translate(0-4)" fill="none" stroke="#00557c" stroke-width="0.37"/><path d="M386,175.75c0-.292711-.237289-.53-.53-.53-.139663-.000026-.273465.05613-.371277.155823s-.151409.23454-.148723.374177c0,.287188.232812.52.52.52.139637.002686.274485-.050912.374177-.148723s.155849-.231614.155823-.371277Z" transform="translate(-379.42-156.79)" fill="none" stroke="#00557c" stroke-width="0.37"/><polygon points="6.81,7.54 5.37,7.54 4.65,8.79 5.37,10.04 6.81,10.04 7.54,8.79 6.81,7.54" transform="translate(0-4)" fill="none" stroke="#00557c" stroke-width="0.37"/><path d="M386,161.58c0-.292711-.237289-.53-.53-.53-.212216.074608-.354216.275051-.354216.5s.142.425392.354216.5c.270795.00174.499349-.200939.53-.47Z" transform="translate(-379.42-156.79)" fill="none" stroke="#00557c" stroke-width="0.37"/><rect width="4.165" height="8.946987" rx="0" ry="0" transform="matrix(2.085234 0 0 2.267471 1.988888 1.731474)" fill="none" stroke="#00557c" stroke-width="0.5"/></g></g></svg>
