<svg xmlns="http://www.w3.org/2000/svg" viewBox="0 0 75.12 41.09"><defs><style>.cls-1{fill:#a6c4d1;stroke-width:0.85px;}.cls-1,.cls-2,.cls-3,.cls-4{stroke:#00557c;}.cls-1,.cls-3,.cls-4{stroke-miterlimit:3.86;}.cls-2,.cls-3,.cls-4{fill:none;}.cls-2{stroke-width:0.37px;}.cls-3,.cls-4{stroke-width:0.23px;}.cls-3{fill-rule:evenodd;}.cls-5{fill:#d9e6eb;}.cls-6{fill:#00557c;}.cls-7{fill:#d9edf5;}</style></defs><g id="Original"><rect class="cls-1" x="0.43" y="1.3" width="74.27" height="36.91"/><rect class="cls-1" x="50.78" y="0.43" width="1.59" height="0.77"/><line class="cls-2" x1="71.57" y1="1.53" x2="71.57" y2="38.21"/><line class="cls-2" x1="32.68" y1="1.53" x2="32.68" y2="38.21"/><line class="cls-2" x1="30.39" y1="1.53" x2="30.39" y2="38.21"/><line class="cls-2" x1="30.35" y1="1.53" x2="30.35" y2="38.21"/><line class="cls-2" x1="21.03" y1="1.53" x2="21.03" y2="38.21"/><line class="cls-2" x1="18.21" y1="1.53" x2="18.21" y2="38.21"/><line class="cls-2" x1="3.41" y1="1.53" x2="3.41" y2="38.21"/><line class="cls-2" x1="3.41" y1="1.53" x2="3.41" y2="38.21"/><line class="cls-2" x1="14.09" y1="1.53" x2="14.09" y2="38.21"/><line class="cls-2" x1="12.96" y1="1.53" x2="12.96" y2="38.21"/><line class="cls-2" x1="8.52" y1="1.53" x2="8.52" y2="38.21"/><line class="cls-2" x1="7.39" y1="1.53" x2="7.39" y2="38.21"/><path class="cls-3" d="M361.34,172.13a1,1,0,1,0-.95-1A1,1,0,0,0,361.34,172.13Z" transform="translate(-359.29 -166.54)"/><path class="cls-4" d="M361.34,171.65a.48.48,0,1,0-.47-.48A.48.48,0,0,0,361.34,171.65Z" transform="translate(-359.29 -166.54)"/><path class="cls-3" d="M361.34,202.59a1,1,0,1,0-.95-1A1,1,0,0,0,361.34,202.59Z" transform="translate(-359.29 -166.54)"/><path class="cls-3" d="M361.34,202.11a.47.47,0,0,0,.48-.48.48.48,0,1,0-.95,0A.47.47,0,0,0,361.34,202.11Z" transform="translate(-359.29 -166.54)"/><path class="cls-3" d="M432.41,172.13a1,1,0,1,0-1-1A1,1,0,0,0,432.41,172.13Z" transform="translate(-359.29 -166.54)"/><path class="cls-4" d="M432.41,171.65a.48.48,0,1,0,0-1,.48.48,0,0,0,0,1Z" transform="translate(-359.29 -166.54)"/><path class="cls-3" d="M432.41,202.59a1,1,0,1,0-1-1A1,1,0,0,0,432.41,202.59Z" transform="translate(-359.29 -166.54)"/><path class="cls-3" d="M432.41,202.11a.48.48,0,0,0,.48-.48.49.49,0,0,0-.48-.48.48.48,0,0,0-.48.48A.47.47,0,0,0,432.41,202.11Z" transform="translate(-359.29 -166.54)"/><rect class="cls-1" x="38.41" y="38.21" width="1.59" height="1.54"/><rect class="cls-1" x="40.6" y="38.21" width="6.33" height="1.54"/><rect class="cls-1" x="47.52" y="38.21" width="1.59" height="1.54"/><rect class="cls-1" x="53.48" y="38.21" width="1.28" height="1.54"/><rect class="cls-1" x="55.24" y="38.21" width="5.1" height="1.54"/><rect class="cls-1" x="60.83" y="38.21" width="1.28" height="1.54"/><rect class="cls-1" x="63.09" y="38.21" width="1.28" height="1.54"/><rect class="cls-1" x="64.85" y="38.21" width="5.1" height="1.54"/><rect class="cls-1" x="70.43" y="38.21" width="1.28" height="1.54"/><path class="cls-1" d="M383.14,207.08c2.26-.27,10.54-.94,10.54-.94v-1.39H379.5v1.54S378.71,207.61,383.14,207.08Z" transform="translate(-359.29 -166.54)"/><rect class="cls-5" x="21.44" y="2" width="8.48" height="35.51"/><rect class="cls-6" x="22.72" y="2.98" width="5.92" height="1.38"/><rect class="cls-7" x="37.08" y="36.21" width="1.03" height="1.56"/><rect class="cls-7" x="40.47" y="36.21" width="1.03" height="1.56"/><rect class="cls-7" x="43.86" y="36.21" width="1.03" height="1.56"/><rect class="cls-7" x="47.26" y="36.21" width="1.03" height="1.56"/></g></svg>