<svg xmlns="http://www.w3.org/2000/svg" viewBox="0 0 57.57 67.63"><defs><style>.cls-1,.cls-7,.cls-8{fill:#a6c4d1;}.cls-2{fill:#d9e6eb;}.cls-3{fill:#d9edf5;}.cls-4,.cls-5{fill:none;}.cls-4,.cls-5,.cls-7{stroke:#00557c;}.cls-4{stroke-width:0.85px;}.cls-5,.cls-7{stroke-width:0.23px;}.cls-6{fill:#00557c;}.cls-8{fill-rule:evenodd;}</style></defs><g id="Original"><rect class="cls-1" x="0.43" y="0.43" width="56.72" height="66.78"/><rect class="cls-2" x="28.29" y="10.12" width="6.41" height="17.43"/><rect class="cls-3" x="46.44" y="37.51" width="1.2" height="1.18"/><rect class="cls-3" x="47.85" y="7.48" width="1.18" height="1.2"/><rect class="cls-3" x="46.45" y="7.48" width="1.2" height="1.2"/><rect class="cls-3" x="49.24" y="7.48" width="1.2" height="1.2"/><rect class="cls-3" x="21.84" y="32.43" width="1.2" height="1.18"/><rect class="cls-3" x="21.84" y="30.64" width="1.2" height="1.2"/><line class="cls-4" x1="14.77" y1="3.49" x2="0.43" y2="3.49"/><line class="cls-1" x1="24.75" y1="3.49" x2="24.75" y2="67.21"/><line class="cls-4" x1="24.75" y1="3.49" x2="24.75" y2="67.21"/><line class="cls-5" x1="13.38" y1="8.91" x2="57.17" y2="8.91"/><line class="cls-5" x1="13.38" y1="7.24" x2="57.17" y2="7.24"/><rect class="cls-6" x="27.49" y="4.53" width="8.01" height="2.26"/><path class="cls-5" d="M384.39,158.88a1,1,0,1,1-1.93,0,1,1,0,0,1,1.93,0Z" transform="translate(-368 -153.27)"/><rect class="cls-5" x="0.43" y="49.41" width="9.51" height="17.23"/><rect class="cls-7" x="0.42" y="30.64" width="12.53" height="10.99"/><rect class="cls-5" x="49.78" y="52.87" width="7.5" height="5.22"/><rect class="cls-7" x="51.55" y="48.16" width="2.62" height="15.14"/><rect class="cls-5" x="0.43" y="53.2" width="9.51" height="6.29"/><rect class="cls-1" x="2.69" y="54.34" width="5.5" height="12.3"/><rect class="cls-5" x="2.69" y="54.34" width="5.5" height="12.3"/><path class="cls-8" d="M373.13,209.73a.94.94,0,1,1-.94-.94.95.95,0,0,1,.94.94" transform="translate(-368 -153.27)"/><path class="cls-5" d="M373.13,209.73a.94.94,0,1,1-.94-.94A.95.95,0,0,1,373.13,209.73Z" transform="translate(-368 -153.27)"/><path class="cls-8" d="M375.64,209.73a.94.94,0,1,1-.94-.94.95.95,0,0,1,.94.94" transform="translate(-368 -153.27)"/><path class="cls-5" d="M375.64,209.73a.94.94,0,1,1-.94-.94A.95.95,0,0,1,375.64,209.73Z" transform="translate(-368 -153.27)"/><path class="cls-8" d="M373.13,217.89a.94.94,0,1,1-.94-.94.94.94,0,0,1,.94.94" transform="translate(-368 -153.27)"/><path class="cls-5" d="M373.13,217.89a.94.94,0,1,1-.94-.94A.94.94,0,0,1,373.13,217.89Z" transform="translate(-368 -153.27)"/><path class="cls-8" d="M375.64,217.89a.94.94,0,1,1-.94-.94.94.94,0,0,1,.94.94" transform="translate(-368 -153.27)"/><path class="cls-5" d="M375.64,217.89a.94.94,0,1,1-.94-.94A.94.94,0,0,1,375.64,217.89Z" transform="translate(-368 -153.27)"/><rect class="cls-1" x="2.69" y="58.09" width="5.5" height="0.99"/><rect class="cls-5" x="2.69" y="58.09" width="5.5" height="0.99"/><rect class="cls-1" x="2.69" y="62.04" width="5.5" height="0.99"/><rect class="cls-5" x="2.69" y="62.04" width="5.5" height="0.99"/><rect class="cls-5" x="4.75" y="30.64" width="4.18" height="10.99"/><rect class="cls-5" x="5.46" y="36.7" width="2.77" height="4.21"/><rect class="cls-5" x="9.73" y="36.7" width="2.29" height="4.21"/><rect class="cls-5" x="1.63" y="36.7" width="2.29" height="4.21"/><rect class="cls-4" x="0.43" y="0.43" width="56.72" height="66.78"/><polyline class="cls-4" points="57.28 41.08 13.25 41.08 13.25 3.49 57.28 3.49"/><rect class="cls-3" x="2.17" y="31.63" width="1.2" height="1.18"/><rect class="cls-7" x="49.78" y="39.19" width="5.18" height="8.31"/><path class="cls-5" d="M422,196.61a1.6,1.6,0,1,1-3.19,0,1.6,1.6,0,0,1,3.19,0Z" transform="translate(-368 -153.27)"/><rect class="cls-5" x="2.11" y="5.07" width="7.89" height="9.07"/><polygon class="cls-5" points="4.35 5.87 4.35 7.49 3.36 7.49 3.36 8.32 2.11 8.32 2.11 10.72 3.36 10.72 3.36 11.45 4.35 11.45 4.35 13.17 8.59 13.17 8.59 5.87 4.35 5.87"/><rect class="cls-5" x="15.16" y="10.12" width="7.89" height="9.07"/><polygon class="cls-5" points="17.39 10.92 17.39 12.53 16.4 12.53 16.4 13.37 15.15 13.37 15.15 15.77 16.4 15.77 16.4 16.49 17.39 16.49 17.39 18.22 21.63 18.22 21.63 10.92 17.39 10.92"/><rect class="cls-5" x="15.16" y="20.67" width="7.89" height="9.07"/><polygon class="cls-5" points="17.39 21.47 17.39 23.08 16.4 23.08 16.4 23.92 15.15 23.92 15.15 26.32 16.4 26.32 16.4 27.04 17.39 27.04 17.39 28.77 21.63 28.77 21.63 21.47 17.39 21.47"/></g></svg>