<svg xmlns="http://www.w3.org/2000/svg" viewBox="0 0 26.36 23.53"><defs><style>.cls-1,.cls-2{fill:#a6c4d1;stroke:#00557c;}.cls-1{stroke-width:0.85px;}.cls-2,.cls-3{stroke-width:0.23px;}.cls-3{fill:#d9edf5;stroke:#a6c4d1;fill-rule:evenodd;}</style></defs><g id="Original-2" data-name="Original"><rect class="cls-1" x="0.43" y="0.43" width="25.51" height="22.68"/><line class="cls-2" x1="16.29" y1="5.73" x2="16.29" y2="18.28"/><line class="cls-2" x1="0.43" y1="18.29" x2="25.94" y2="18.29"/><line class="cls-2" x1="0.43" y1="5.73" x2="25.94" y2="5.73"/><polyline class="cls-3" points="11.96 9.01 12.87 9.01 12.87 8.1 11.96 8.1 11.96 9.01"/><polyline class="cls-3" points="11.96 7.84 12.87 7.84 12.87 6.93 11.96 6.93 11.96 7.84"/><polyline class="cls-3" points="11.96 10.16 12.87 10.16 12.87 9.25 11.96 9.25 11.96 10.16"/><polyline class="cls-3" points="11.96 11.33 12.87 11.33 12.87 10.42 11.96 10.42 11.96 11.33"/><polyline class="cls-3" points="11.96 13.64 12.87 13.64 12.87 12.73 11.96 12.73 11.96 13.64"/><polyline class="cls-3" points="11.96 12.49 12.87 12.49 12.87 11.58 11.96 11.58 11.96 12.49"/><polyline class="cls-3" points="11.96 15.96 12.87 15.96 12.87 15.05 11.96 15.05 11.96 15.96"/><polyline class="cls-3" points="11.96 14.79 12.87 14.79 12.87 13.88 11.96 13.88 11.96 14.79"/><polyline class="cls-3" points="11.96 17.11 12.87 17.11 12.87 16.2 11.96 16.2 11.96 17.11"/><line class="cls-2" x1="11.95" y1="5.79" x2="11.95" y2="18.26"/></g></svg>