<svg xmlns="http://www.w3.org/2000/svg" viewBox="0 0 7.94 83.07"><defs><style>.cls-1,.cls-2{fill:#a6c4d1;}.cls-1,.cls-2,.cls-3,.cls-4,.cls-6{stroke:#00557c;}.cls-1,.cls-2,.cls-6{stroke-width:0.85px;}.cls-2,.cls-4,.cls-5{fill-rule:evenodd;}.cls-3,.cls-4,.cls-6{fill:none;}.cls-3,.cls-4,.cls-5{stroke-width:0.23px;}.cls-5{fill:#d9edf5;stroke:#a6c4d1;}</style></defs><g id="Original-2" data-name="Original"><rect class="cls-1" x="0.43" y="0.43" width="7.09" height="82.22"/><path class="cls-2" d="M396.85,187.09" transform="translate(-392.88 -145.55)"/><rect class="cls-3" x="2.38" y="47.31" width="2.67" height="3.54"/><path class="cls-4" d="M396.6,194.64" transform="translate(-392.88 -145.55)"/><path class="cls-4" d="M399.2,196.87a.27.27,0,0,0,.26-.27v-3.92a.26.26,0,0,0-.26-.26h-4.7a.26.26,0,0,0-.26.26v3.93a.26.26,0,0,0,.26.26Z" transform="translate(-392.88 -145.55)"/><rect class="cls-3" x="2.38" y="53.31" width="2.67" height="3.54"/><path class="cls-4" d="M396.6,200.63" transform="translate(-392.88 -145.55)"/><path class="cls-4" d="M399.2,202.87a.27.27,0,0,0,.26-.27v-3.92a.26.26,0,0,0-.26-.26h-4.7a.26.26,0,0,0-.26.26v3.92a.27.27,0,0,0,.26.27Z" transform="translate(-392.88 -145.55)"/><line class="cls-3" x1="0.61" y1="4.68" x2="7.33" y2="4.68"/><polyline class="cls-5" points="3.51 10.05 4.42 10.05 4.42 9.16 3.51 9.16 3.51 10.05"/><polyline class="cls-5" points="3.51 9.16 4.42 9.16 4.42 8.25 3.51 8.25 3.51 9.16"/><polyline class="cls-5" points="3.51 10.96 4.42 10.96 4.42 10.05 3.51 10.05 3.51 10.96"/><polyline class="cls-5" points="3.51 12.78 4.42 12.78 4.42 11.87 3.51 11.87 3.51 12.78"/><polyline class="cls-5" points="3.51 11.87 4.42 11.87 4.42 10.96 3.51 10.96 3.51 11.87"/><polyline class="cls-5" points="3.51 13.69 4.42 13.69 4.42 12.78 3.51 12.78 3.51 13.69"/><polyline class="cls-5" points="3.51 14.62 4.42 14.62 4.42 13.69 3.51 13.69 3.51 14.62"/><polyline class="cls-5" points="3.51 15.48 4.42 15.48 4.42 14.6 3.51 14.6 3.51 15.48"/><polyline class="cls-5" points="3.51 16.4 4.42 16.4 4.42 15.51 3.51 15.51 3.51 16.4"/><polyline class="cls-5" points="3.51 17.31 4.42 17.31 4.42 16.4 3.51 16.4 3.51 17.31"/><polyline class="cls-5" points="3.51 18.26 4.42 18.26 4.42 17.31 3.51 17.31 3.51 18.26"/><polyline class="cls-5" points="3.51 19.1 4.42 19.1 4.42 18.22 3.51 18.22 3.51 19.1"/><polyline class="cls-5" points="3.51 20.04 4.42 20.04 4.42 19.13 3.51 19.13 3.51 20.04"/><polyline class="cls-5" points="3.51 20.93 4.42 20.93 4.42 20.04 3.51 20.04 3.51 20.93"/><polyline class="cls-5" points="3.51 21.84 4.42 21.84 4.42 20.93 3.51 20.93 3.51 21.84"/><polyline class="cls-5" points="3.51 22.79 4.42 22.79 4.42 21.84 3.51 21.84 3.51 22.79"/><polyline class="cls-5" points="3.51 23.63 4.42 23.63 4.42 22.75 3.51 22.75 3.51 23.63"/><polyline class="cls-5" points="3.51 29.62 4.42 29.62 4.42 28.75 3.51 28.75 3.51 29.62"/><polyline class="cls-5" points="3.51 30.57 4.42 30.57 4.42 29.66 3.51 29.66 3.51 30.57"/><polyline class="cls-5" points="3.51 31.46 4.42 31.46 4.42 30.57 3.51 30.57 3.51 31.46"/><polyline class="cls-5" points="3.51 32.37 4.42 32.37 4.42 31.46 3.51 31.46 3.51 32.37"/><polyline class="cls-5" points="3.51 33.31 4.42 33.31 4.42 32.37 3.51 32.37 3.51 33.31"/><polyline class="cls-5" points="3.51 34.15 4.42 34.15 4.42 33.28 3.51 33.28 3.51 34.15"/><rect class="cls-3" x="1.36" y="26.67" width="5.22" height="8.9"/><line class="cls-6" x1="0.43" y1="37.58" x2="7.51" y2="37.58"/><rect class="cls-3" x="2.64" y="26.67" width="2.65" height="0.77"/><path class="cls-3" d="M397.74,225.56a.85.85,0,1,1-.85-.84A.85.85,0,0,1,397.74,225.56Z" transform="translate(-392.88 -145.55)"/></g></svg>