<svg xmlns="http://www.w3.org/2000/svg"
     viewBox="0 0 18.65 83.05">
	<defs>
		<style>.cls-1{fill:#a6c4d1;}.cls-1,.cls-2,.cls-3,.cls-5,.cls-6,.cls-7,.cls-8{stroke:#00557c;}.cls-1,.cls-3{stroke-width:0.85px;}.cls-2,.cls-3,.cls-5,.cls-8{fill:none;}.cls-2,.cls-8{stroke-width:0.23px;}.cls-4{fill:#d9edf5;stroke:#a6c4d1;stroke-width:0.35px;}.cls-4,.cls-6,.cls-8{fill-rule:evenodd;}.cls-5,.cls-6,.cls-7{stroke-width:0.25px;}.cls-6{fill:#d9e6eb;}.cls-7{fill:#00557c;}</style>
	</defs>
	<g id="Original-2"
	   data-name="Original">
		<rect class="cls-1"
		      x="0.43"
		      y="0.43"
		      width="7.09"
		      height="82.2"/>
		<line class="cls-2"
		      x1="0.43"
		      y1="5.45"
		      x2="7.51"
		      y2="5.45"/>
		<line class="cls-2"
		      x1="0.43"
		      y1="9.51"
		      x2="7.51"
		      y2="9.51"/>
		<rect class="cls-3"
		      x="0.43"
		      y="55.02"
		      width="7.09"/>
		<path class="cls-2"
		      d="M392.34,153.35a.85.85,0,1,1-.85-.84A.85.85,0,0,1,392.34,153.35Z"
		      transform="translate(-387.53 -145.56)"/>
		<polyline class="cls-4"
		          points="3.24 15.67 4.51 15.67 4.51 14.42 3.24 14.42 3.24 15.67"/>
		<polyline class="cls-4"
		          points="3.24 14.42 4.51 14.42 4.51 13.16 3.24 13.16 3.24 14.42"/>
		<polyline class="cls-4"
		          points="3.24 16.94 4.51 16.94 4.51 15.67 3.24 15.67 3.24 16.94"/>
		<polyline class="cls-4"
		          points="3.24 18.21 4.51 18.21 4.51 16.94 3.24 16.94 3.24 18.21"/>
		<polyline class="cls-4"
		          points="3.24 20.73 4.51 20.73 4.51 19.49 3.24 19.49 3.24 20.73"/>
		<polyline class="cls-4"
		          points="3.24 19.49 4.51 19.49 4.51 18.22 3.24 18.22 3.24 19.49"/>
		<polyline class="cls-4"
		          points="3.24 22 4.51 22 4.51 20.73 3.24 20.73 3.24 22"/>
		<polyline class="cls-4"
		          points="3.24 23.27 4.51 23.27 4.51 22 3.24 22 3.24 23.27"/>
		<polyline class="cls-4"
		          points="3.24 25.79 4.51 25.79 4.51 24.54 3.24 24.54 3.24 25.79"/>
		<polyline class="cls-4"
		          points="3.24 24.54 4.51 24.54 4.51 23.27 3.24 23.27 3.24 24.54"/>
		<polyline class="cls-4"
		          points="3.24 27.06 4.51 27.06 4.51 25.79 3.24 25.79 3.24 27.06"/>
		<rect class="cls-5"
		      x="3.44"
		      y="29.77"
		      width="1.06"
		      height="1.87"/>
		<path class="cls-6"
		      d="M391.49,176.27"
		      transform="translate(-387.53 -145.56)"/>
		<rect class="cls-7"
		      x="3.71"
		      y="29.02"
		      width="0.52"
		      height="1.87"/>
		<path class="cls-2"
		      d="M392.34,225.57a.85.85,0,1,1-.85-.84A.85.85,0,0,1,392.34,225.57Z"
		      transform="translate(-387.53 -145.56)"/>
		<path class="cls-8"
		      d="M392,216.21a.54.54,0,1,0-.8.46A.53.53,0,0,0,392,216.21Z"
		      transform="translate(-387.53 -145.56)"/>
		<path class="cls-8"
		      d="M392,208.13a.54.54,0,1,0-.8.47A.53.53,0,0,0,392,208.13Z"
		      transform="translate(-387.53 -145.56)"/>
		<polygon class="cls-8"
		         points="5.01 68.79 4.98 69.16 4.82 69.35 4.53 69.35 2.87 68.84 2.73 68.57 2.73 64.65 2.87 64.38 4.61 63.89 4.86 63.92 5 64.14 5.01 68.79"/>
	</g>
</svg>