<svg xmlns="http://www.w3.org/2000/svg" viewBox="0 0 14.97 83.15"><defs><style>.cls-1,.cls-4{fill:#a6c4d1;}.cls-2{fill:#00557c;}.cls-3{fill:#ffed00;}.cls-3,.cls-4,.cls-6{fill-rule:evenodd;}.cls-5,.cls-6,.cls-7{fill:none;stroke:#00557c;stroke-width:0.23px;}.cls-6,.cls-7{stroke-miterlimit:3.86;}.cls-8{fill:#d9edf5;}</style></defs><g id="Original-2" data-name="Original"><rect class="cls-1" x="0.43" y="0.43" width="14.12" height="82.3"/><path class="cls-2" d="M404.33,228.66h-15V145.51h15Zm-14.11-.85h13.26V146.36H390.22Z" transform="translate(-389.37 -145.51)"/><rect class="cls-2" x="0.35" y="36.36" width="14.11" height="0.23"/><rect class="cls-2" x="0.42" y="4.55" width="14.13" height="0.23"/><line class="cls-1" x1="14.54" y1="82.64" x2="14.54" y2="0.43"/><rect class="cls-2" x="14.12" y="0.43" width="0.85" height="82.22"/><line class="cls-1" x1="14.54" y1="82.64" x2="14.54" y2="0.43"/><rect class="cls-2" x="14.12" y="0.43" width="0.85" height="82.22"/><path class="cls-3" d="M399.25,189" transform="translate(-389.37 -145.51)"/><path class="cls-4" d="M399.84,186.24" transform="translate(-389.37 -145.51)"/><path class="cls-5" d="M399.84,186.24" transform="translate(-389.37 -145.51)"/><path class="cls-2" d="M402.79,217.05H397.6v-16h5.19Zm-5-.22h4.73V201.29h-4.73Z" transform="translate(-389.37 -145.51)"/><path class="cls-4" d="M400.2,203.18" transform="translate(-389.37 -145.51)"/><path class="cls-5" d="M400.2,203.18" transform="translate(-389.37 -145.51)"/><path class="cls-2" d="M396.1,208.54h-5.19v-7.48h5.19Zm-5-.23h4.73v-7h-4.73Z" transform="translate(-389.37 -145.51)"/><path class="cls-4" d="M393.51,204.79" transform="translate(-389.37 -145.51)"/><path class="cls-5" d="M393.51,204.79" transform="translate(-389.37 -145.51)"/><path class="cls-2" d="M396.1,217h-5.19v-7.48h5.19Zm-5-.23h4.73v-7h-4.73Z" transform="translate(-389.37 -145.51)"/><path class="cls-4" d="M393.51,213.3" transform="translate(-389.37 -145.51)"/><path class="cls-5" d="M393.51,213.3" transform="translate(-389.37 -145.51)"/><path class="cls-4" d="M400.2,210.66" transform="translate(-389.37 -145.51)"/><path class="cls-5" d="M400.2,210.66" transform="translate(-389.37 -145.51)"/><path class="cls-2" d="M402.79,199.8H397.6v-16h5.19Zm-5-.22h4.73V184h-4.73Z" transform="translate(-389.37 -145.51)"/><path class="cls-4" d="M400.2,185.93" transform="translate(-389.37 -145.51)"/><path class="cls-5" d="M400.2,185.93" transform="translate(-389.37 -145.51)"/><path class="cls-4" d="M400.2,193.41" transform="translate(-389.37 -145.51)"/><path class="cls-5" d="M400.2,193.41" transform="translate(-389.37 -145.51)"/><path class="cls-6" d="M393.12,179.75a.36.36,0,0,1-.36.36.36.36,0,1,1,0-.71A.36.36,0,0,1,393.12,179.75Z" transform="translate(-389.37 -145.51)"/><rect class="cls-7" x="3.3" y="73.6" width="2.1" height="2.1"/><path class="cls-6" d="M393.55,189.54a.49.49,0,1,0-.73.43A.49.49,0,0,0,393.55,189.54Z" transform="translate(-389.37 -145.51)"/><path class="cls-6" d="M393.55,183a.49.49,0,1,0-.73.42A.49.49,0,0,0,393.55,183Z" transform="translate(-389.37 -145.51)"/><polygon class="cls-6" points="4.86 42.76 4.83 43.09 4.66 43.26 4.37 43.26 2.65 42.79 2.53 42.54 2.54 38.93 2.58 38.89 2.67 38.75 4.44 38.3 4.7 38.33 4.84 38.53 4.86 42.76"/><rect class="cls-8" x="3.03" y="9.41" width="0.68" height="0.67"/><rect class="cls-8" x="3.03" y="8.5" width="0.68" height="0.68"/><rect class="cls-8" x="3.03" y="10.3" width="0.68" height="0.68"/><rect class="cls-8" x="3.03" y="12.12" width="0.68" height="0.68"/><rect class="cls-8" x="3.03" y="11.21" width="0.68" height="0.68"/><rect class="cls-8" x="3.03" y="13.03" width="0.68" height="0.68"/><rect class="cls-8" x="3.03" y="13.94" width="0.68" height="0.7"/><rect class="cls-8" x="3.03" y="14.85" width="0.68" height="0.65"/><rect class="cls-8" x="3.03" y="15.76" width="0.68" height="0.67"/><rect class="cls-8" x="3.03" y="16.65" width="0.68" height="0.68"/><rect class="cls-8" x="3.03" y="17.56" width="0.68" height="0.72"/><rect class="cls-8" x="3.03" y="18.47" width="0.68" height="0.65"/><rect class="cls-8" x="3.03" y="19.38" width="0.68" height="0.68"/><rect class="cls-8" x="3.03" y="20.29" width="0.68" height="0.67"/><rect class="cls-8" x="3.03" y="21.18" width="0.68" height="0.68"/><rect class="cls-8" x="3.03" y="22.09" width="0.68" height="0.72"/><rect class="cls-8" x="3.03" y="23" width="0.68" height="0.65"/><rect class="cls-8" x="3.03" y="25.95" width="0.68" height="0.68"/><rect class="cls-8" x="3.03" y="27.77" width="0.68" height="0.68"/><rect class="cls-8" x="3.03" y="26.86" width="0.68" height="0.68"/><rect class="cls-8" x="3.03" y="28.68" width="0.68" height="0.68"/><rect class="cls-8" x="3.03" y="29.58" width="0.68" height="0.7"/><rect class="cls-8" x="3.8" y="51.08" width="0.68" height="0.67"/><rect class="cls-8" x="3.8" y="50.17" width="0.68" height="0.68"/></g></svg>