<svg xmlns="http://www.w3.org/2000/svg" viewBox="0 0 14.97 83.15"><defs><style>.cls-1,.cls-6{fill:#a6c4d1;}.cls-1,.cls-3,.cls-6,.cls-7{stroke:#00557c;}.cls-1{stroke-width:0.85px;}.cls-2{fill:#d9e6eb;}.cls-3,.cls-7{fill:none;}.cls-3,.cls-4,.cls-6,.cls-7{stroke-width:0.23px;}.cls-4{fill:#d9edf5;stroke:#a6c4d1;}.cls-4,.cls-5,.cls-6,.cls-7{fill-rule:evenodd;}.cls-5{fill:#ffed00;}</style></defs><g id="Original-2" data-name="Original"><rect class="cls-1" x="0.43" y="0.43" width="14.12" height="82.3"/><rect class="cls-2" x="4.71" y="7.99" width="1.79" height="15.78"/><rect class="cls-3" x="2.58" y="31.27" width="1.42" height="2.48"/><line class="cls-3" x1="0.35" y1="36.47" x2="14.46" y2="36.47"/><line class="cls-3" x1="0.42" y1="4.66" x2="14.54" y2="4.66"/><polyline class="cls-4" points="2.92 10.19 3.83 10.19 3.83 9.3 2.92 9.3 2.92 10.19"/><polyline class="cls-4" points="2.92 9.3 3.83 9.3 3.83 8.39 2.92 8.39 2.92 9.3"/><polyline class="cls-4" points="2.92 11.1 3.83 11.1 3.83 10.19 2.92 10.19 2.92 11.1"/><polyline class="cls-4" points="2.92 12.92 3.83 12.92 3.83 12.01 2.92 12.01 2.92 12.92"/><polyline class="cls-4" points="2.92 12.01 3.83 12.01 3.83 11.1 2.92 11.1 2.92 12.01"/><polyline class="cls-4" points="2.92 13.83 3.83 13.83 3.83 12.92 2.92 12.92 2.92 13.83"/><polyline class="cls-4" points="2.92 14.76 3.83 14.76 3.83 13.83 2.92 13.83 2.92 14.76"/><polyline class="cls-4" points="2.92 15.61 3.83 15.61 3.83 14.74 2.92 14.74 2.92 15.61"/><polyline class="cls-4" points="2.92 16.54 3.83 16.54 3.83 15.65 2.92 15.65 2.92 16.54"/><polyline class="cls-4" points="2.92 17.45 3.83 17.45 3.83 16.54 2.92 16.54 2.92 17.45"/><polyline class="cls-4" points="2.92 18.39 3.83 18.39 3.83 17.45 2.92 17.45 2.92 18.39"/><polyline class="cls-4" points="2.92 19.23 3.83 19.23 3.83 18.36 2.92 18.36 2.92 19.23"/><polyline class="cls-4" points="2.92 20.18 3.83 20.18 3.83 19.27 2.92 19.27 2.92 20.18"/><polyline class="cls-4" points="2.92 21.07 3.83 21.07 3.83 20.18 2.92 20.18 2.92 21.07"/><polyline class="cls-4" points="2.92 21.98 3.83 21.98 3.83 21.07 2.92 21.07 2.92 21.98"/><polyline class="cls-4" points="2.92 22.92 3.83 22.92 3.83 21.98 2.92 21.98 2.92 22.92"/><polyline class="cls-4" points="2.92 23.76 3.83 23.76 3.83 22.89 2.92 22.89 2.92 23.76"/><polyline class="cls-4" points="3.68 51.86 4.59 51.86 4.59 50.97 3.68 50.97 3.68 51.86"/><polyline class="cls-4" points="3.68 50.97 4.59 50.97 4.59 50.06 3.68 50.06 3.68 50.97"/><polyline class="cls-4" points="10.97 10.19 11.88 10.19 11.88 9.3 10.97 9.3 10.97 10.19"/><polyline class="cls-4" points="10.97 9.3 11.88 9.3 11.88 8.39 10.97 8.39 10.97 9.3"/><polyline class="cls-4" points="10.97 11.1 11.88 11.1 11.88 10.19 10.97 10.19 10.97 11.1"/><polyline class="cls-4" points="10.97 12.92 11.88 12.92 11.88 12.01 10.97 12.01 10.97 12.92"/><polyline class="cls-4" points="10.97 12.01 11.88 12.01 11.88 11.1 10.97 11.1 10.97 12.01"/><polyline class="cls-4" points="10.97 13.83 11.88 13.83 11.88 12.92 10.97 12.92 10.97 13.83"/><polyline class="cls-4" points="10.97 14.76 11.88 14.76 11.88 13.83 10.97 13.83 10.97 14.76"/><polyline class="cls-4" points="10.97 15.61 11.88 15.61 11.88 14.74 10.97 14.74 10.97 15.61"/><polyline class="cls-4" points="10.97 16.54 11.88 16.54 11.88 15.65 10.97 15.65 10.97 16.54"/><polyline class="cls-4" points="10.97 17.45 11.88 17.45 11.88 16.54 10.97 16.54 10.97 17.45"/><polyline class="cls-4" points="10.97 18.39 11.88 18.39 11.88 17.45 10.97 17.45 10.97 18.39"/><polyline class="cls-4" points="10.97 19.23 11.88 19.23 11.88 18.36 10.97 18.36 10.97 19.23"/><polyline class="cls-4" points="10.97 20.18 11.88 20.18 11.88 19.27 10.97 19.27 10.97 20.18"/><polyline class="cls-4" points="10.97 21.07 11.88 21.07 11.88 20.18 10.97 20.18 10.97 21.07"/><polyline class="cls-4" points="10.97 21.98 11.88 21.98 11.88 21.07 10.97 21.07 10.97 21.98"/><polyline class="cls-4" points="10.97 22.92 11.88 22.92 11.88 21.98 10.97 21.98 10.97 22.92"/><polyline class="cls-4" points="10.97 23.76 11.88 23.76 11.88 22.89 10.97 22.89 10.97 23.76"/><line class="cls-1" x1="14.54" y1="82.64" x2="14.54" y2="0.43"/><line class="cls-1" x1="14.54" y1="82.64" x2="14.54" y2="0.43"/><path class="cls-5" d="M399.29,189" transform="translate(-389.4 -145.51)"/><rect class="cls-3" x="3.08" y="38.45" width="2.12" height="4.55"/><path class="cls-6" d="M393.54,186.24" transform="translate(-389.4 -145.51)"/><rect class="cls-3" x="9.41" y="38.45" width="2.12" height="4.55"/><path class="cls-6" d="M399.87,186.24" transform="translate(-389.4 -145.51)"/><rect class="cls-3" x="8.35" y="55.66" width="4.96" height="4.02"/><path class="cls-6" d="M400.23,203.18" transform="translate(-389.4 -145.51)"/><rect class="cls-3" x="1.66" y="55.66" width="4.96" height="7.25"/><path class="cls-6" d="M393.54,204.79" transform="translate(-389.4 -145.51)"/><rect class="cls-3" x="1.66" y="64.16" width="4.96" height="7.25"/><path class="cls-6" d="M393.54,213.3" transform="translate(-389.4 -145.51)"/><rect class="cls-3" x="8.35" y="63.14" width="4.96" height="4.02"/><path class="cls-6" d="M400.23,210.66" transform="translate(-389.4 -145.51)"/><path class="cls-7" d="M394.6,219.58a1.33,1.33,0,1,0-2,1.16A1.33,1.33,0,0,0,394.6,219.58Z" transform="translate(-389.4 -145.51)"/></g></svg>