<svg xmlns="http://www.w3.org/2000/svg" viewBox="0 0 23.53 23.43"><defs><style>.cls-1,.cls-2{fill:#a6c7d5;stroke:#005f87;stroke-width:0.85px;}.cls-2,.cls-5{fill-rule:evenodd;}.cls-3{fill:none;stroke:#00557c;stroke-miterlimit:3.86;stroke-width:0.23px;}.cls-4,.cls-5{fill:#e5f5f9;stroke:#a6c7d5;stroke-width:0.23px;}</style></defs><g id="Original"><rect class="cls-1" x="0.43" y="0.43" width="22.68" height="22.58"/><path class="cls-2" d="M393.87,187.16" transform="translate(-385.09 -175.41)"/><rect class="cls-3" x="13.32" y="7.58" width="9.77" height="8.4"/><rect class="cls-3" x="0.43" y="18.54" width="22.68" height="4.46"/><polyline class="cls-3" points="23.09 0.34 23.09 5.01 0.41 5.01"/><rect class="cls-4" x="2.15" y="5.86" width="0.91" height="0.91"/><path class="cls-5" d="M387.71,181.74" transform="translate(-385.09 -175.41)"/><polyline class="cls-5" points="3.06 5.87 3.96 5.87 3.96 6.78 3.06 6.78 3.06 5.87"/><path class="cls-5" d="M388.61,181.74" transform="translate(-385.09 -175.41)"/><polyline class="cls-5" points="3.96 5.87 4.87 5.87 4.87 6.78 3.96 6.78 3.96 5.87"/><path class="cls-5" d="M389.51,181.74" transform="translate(-385.09 -175.41)"/><polyline class="cls-5" points="4.87 5.87 5.78 5.87 5.78 6.78 4.87 6.78 4.87 5.87"/><path class="cls-5" d="M390.41,181.74" transform="translate(-385.09 -175.41)"/><polyline class="cls-5" points="5.78 5.87 6.68 5.87 6.68 6.78 5.78 6.78 5.78 5.87"/><path class="cls-5" d="M391.33,181.74" transform="translate(-385.09 -175.41)"/><polyline class="cls-5" points="6.68 5.87 7.59 5.87 7.59 6.78 6.68 6.78 6.68 5.87"/><path class="cls-5" d="M392.24,181.74" transform="translate(-385.09 -175.41)"/><polyline class="cls-5" points="7.59 5.87 8.51 5.87 8.51 6.78 7.59 6.78 7.59 5.87"/><path class="cls-5" d="M393.14,181.74" transform="translate(-385.09 -175.41)"/><polyline class="cls-5" points="8.51 5.87 9.41 5.87 9.41 6.78 8.51 6.78 8.51 5.87"/><path class="cls-5" d="M394.05,181.74" transform="translate(-385.09 -175.41)"/><rect class="cls-4" x="2.15" y="16.77" width="0.91" height="0.91"/><path class="cls-5" d="M387.71,192.65" transform="translate(-385.09 -175.41)"/><polyline class="cls-5" points="3.06 16.77 3.96 16.77 3.96 17.68 3.06 17.68 3.06 16.77"/><path class="cls-5" d="M388.61,192.65" transform="translate(-385.09 -175.41)"/><polyline class="cls-5" points="3.96 16.77 4.87 16.77 4.87 17.68 3.96 17.68 3.96 16.77"/><path class="cls-5" d="M389.51,192.65" transform="translate(-385.09 -175.41)"/><polyline class="cls-5" points="4.87 16.77 5.78 16.77 5.78 17.68 4.87 17.68 4.87 16.77"/><path class="cls-5" d="M390.41,192.65" transform="translate(-385.09 -175.41)"/><polyline class="cls-5" points="5.78 16.77 6.68 16.77 6.68 17.68 5.78 17.68 5.78 16.77"/><path class="cls-5" d="M391.33,192.65" transform="translate(-385.09 -175.41)"/><polyline class="cls-5" points="6.68 16.77 7.59 16.77 7.59 17.68 6.68 17.68 6.68 16.77"/><path class="cls-5" d="M392.24,192.65" transform="translate(-385.09 -175.41)"/><polyline class="cls-5" points="7.59 16.77 8.51 16.77 8.51 17.68 7.59 17.68 7.59 16.77"/><path class="cls-5" d="M393.14,192.65" transform="translate(-385.09 -175.41)"/><polyline class="cls-5" points="8.51 16.77 9.41 16.77 9.41 17.68 8.51 17.68 8.51 16.77"/><path class="cls-5" d="M394.05,192.65" transform="translate(-385.09 -175.41)"/></g></svg>