<svg id="eaLn8Fw5xSp1" xmlns="http://www.w3.org/2000/svg" xmlns:xlink="http://www.w3.org/1999/xlink" viewBox="0 0 12.2 36.29" shape-rendering="geometricPrecision" text-rendering="geometricPrecision"><polyline points="34.44,0.42 45.77,0.42 45.77,35.87 34.44,35.87 34.44,0.42" transform="translate(-34 0)" fill="#a6c4d1" fill-rule="evenodd" stroke="#00557c" stroke-width="0.85" stroke-linecap="square"/><path d="" transform="translate(-390.75-168.88)" fill="#a6c4d1" fill-rule="evenodd" stroke="#00557c" stroke-width="0.85"/><line x1="41.53" y1="0.43" x2="41.53" y2="35.87" transform="translate(-34 0)" fill="none" stroke="#00557c" stroke-width="0.23"/><polyline points="35.51,3.66 40.67,3.66 40.67,32.72 35.51,32.72 35.51,3.66" transform="translate(-34 0)" fill="#d9e6eb" fill-rule="evenodd"/><path d="" transform="translate(-390.75-168.88)" fill="#d9e6eb" fill-rule="evenodd"/><path d="" transform="translate(-390.75-168.88)" fill="#d9e6eb" fill-rule="evenodd"/><polyline points="41.52,3.83 42.44,3.83 42.44,2.93 41.52,2.93 41.52,3.83" transform="translate(-34 0)" fill="#d9edf5" fill-rule="evenodd" stroke="#a6c4d1" stroke-width="0.23"/><polyline points="41.52,2.93 42.44,2.93 42.44,2.02 41.52,2.02 41.52,2.93" transform="translate(-34 0)" fill="#d9edf5" fill-rule="evenodd" stroke="#a6c4d1" stroke-width="0.23"/><polyline points="41.52,4.74 42.44,4.74 42.44,3.83 41.52,3.83 41.52,4.74" transform="translate(-34 0)" fill="#d9edf5" fill-rule="evenodd" stroke="#a6c4d1" stroke-width="0.23"/><polyline points="41.52,6.55 42.44,6.55 42.44,5.64 41.52,5.64 41.52,6.55" transform="translate(-34 0)" fill="#d9edf5" fill-rule="evenodd" stroke="#a6c4d1" stroke-width="0.23"/><polyline points="41.52,5.64 42.44,5.64 42.44,4.74 41.52,4.74 41.52,5.64" transform="translate(-34 0)" fill="#d9edf5" fill-rule="evenodd" stroke="#a6c4d1" stroke-width="0.23"/><polyline points="41.52,7.46 42.44,7.46 42.44,6.55 41.52,6.55 41.52,7.46" transform="translate(-34 0)" fill="#d9edf5" fill-rule="evenodd" stroke="#a6c4d1" stroke-width="0.23"/><polyline points="41.52,8.39 42.44,8.39 42.44,7.46 41.52,7.46 41.52,8.39" transform="translate(-34 0)" fill="#d9edf5" fill-rule="evenodd" stroke="#a6c4d1" stroke-width="0.23"/><polyline points="41.52,9.25 42.44,9.25 42.44,8.37 41.52,8.37 41.52,9.25" transform="translate(-34 0)" fill="#d9edf5" fill-rule="evenodd" stroke="#a6c4d1" stroke-width="0.23"/><polyline points="41.52,10.17 42.44,10.17 42.44,9.28 41.52,9.28 41.52,10.17" transform="translate(-34 0)" fill="#d9edf5" fill-rule="evenodd" stroke="#a6c4d1" stroke-width="0.23"/><polyline points="41.52,11.08 42.44,11.08 42.44,10.17 41.52,10.17 41.52,11.08" transform="translate(-34 0)" fill="#d9edf5" fill-rule="evenodd" stroke="#a6c4d1" stroke-width="0.23"/><polyline points="41.52,12.03 42.44,12.03 42.44,11.08 41.52,11.08 41.52,12.03" transform="translate(-34 0)" fill="#d9edf5" fill-rule="evenodd" stroke="#a6c4d1" stroke-width="0.23"/><polyline points="41.52,12.87 42.44,12.87 42.44,11.99 41.52,11.99 41.52,12.87" transform="translate(-34 0)" fill="#d9edf5" fill-rule="evenodd" stroke="#a6c4d1" stroke-width="0.23"/><polyline points="41.52,13.81 42.44,13.81 42.44,12.9 41.52,12.9 41.52,13.81" transform="translate(-34 0)" fill="#d9edf5" fill-rule="evenodd" stroke="#a6c4d1" stroke-width="0.23"/><polyline points="41.52,24.25 42.44,24.25 42.44,23.35 41.52,23.35 41.52,24.25" transform="translate(-34 0)" fill="#d9edf5" fill-rule="evenodd" stroke="#a6c4d1" stroke-width="0.23"/><polyline points="41.52,23.35 42.44,23.35 42.44,22.44 41.52,22.44 41.52,23.35" transform="translate(-34 0)" fill="#d9edf5" fill-rule="evenodd" stroke="#a6c4d1" stroke-width="0.23"/><polyline points="41.52,25.16 42.44,25.16 42.44,24.25 41.52,24.25 41.52,25.16" transform="translate(-34 0)" fill="#d9edf5" fill-rule="evenodd" stroke="#a6c4d1" stroke-width="0.23"/><polyline points="41.52,26.97 42.44,26.97 42.44,26.06 41.52,26.06 41.52,26.97" transform="translate(-34 0)" fill="#d9edf5" fill-rule="evenodd" stroke="#a6c4d1" stroke-width="0.23"/><polyline points="41.52,26.06 42.44,26.06 42.44,25.16 41.52,25.16 41.52,26.06" transform="translate(-34 0)" fill="#d9edf5" fill-rule="evenodd" stroke="#a6c4d1" stroke-width="0.23"/><polyline points="41.52,27.88 42.44,27.88 42.44,26.97 41.52,26.97 41.52,27.88" transform="translate(-34 0)" fill="#d9edf5" fill-rule="evenodd" stroke="#a6c4d1" stroke-width="0.23"/><polyline points="41.52,28.81 42.44,28.81 42.44,27.88 41.52,27.88 41.52,28.81" transform="translate(-34 0)" fill="#d9edf5" fill-rule="evenodd" stroke="#a6c4d1" stroke-width="0.23"/><polyline points="41.52,29.67 42.44,29.67 42.44,28.79 41.52,28.79 41.52,29.67" transform="translate(-34 0)" fill="#d9edf5" fill-rule="evenodd" stroke="#a6c4d1" stroke-width="0.23"/><polyline points="41.52,30.59 42.44,30.59 42.44,29.7 41.52,29.7 41.52,30.59" transform="translate(-34 0)" fill="#d9edf5" fill-rule="evenodd" stroke="#a6c4d1" stroke-width="0.23"/><polyline points="41.52,31.5 42.44,31.5 42.44,30.59 41.52,30.59 41.52,31.5" transform="translate(-34 0)" fill="#d9edf5" fill-rule="evenodd" stroke="#a6c4d1" stroke-width="0.23"/><polyline points="41.52,32.45 42.44,32.45 42.44,31.5 41.52,31.5 41.52,32.45" transform="translate(-34 0)" fill="#d9edf5" fill-rule="evenodd" stroke="#a6c4d1" stroke-width="0.23"/><polyline points="41.52,33.29 42.44,33.29 42.44,32.41 41.52,32.41 41.52,33.29" transform="translate(-34 0)" fill="#d9edf5" fill-rule="evenodd" stroke="#a6c4d1" stroke-width="0.23"/><polyline points="41.52,34.23 42.44,34.23 42.44,33.32 41.52,33.32 41.52,34.23" transform="translate(-34 0)" fill="#d9edf5" fill-rule="evenodd" stroke="#a6c4d1" stroke-width="0.23"/><line x1="41.53" y1="0.43" x2="41.53" y2="35.87" transform="translate(-34 0)" fill="none" stroke="#00557c" stroke-width="0.23"/></svg>
