<svg id="e08GaTJfZ141" xmlns="http://www.w3.org/2000/svg" xmlns:xlink="http://www.w3.org/1999/xlink" viewBox="0 0 6.25 18" shape-rendering="geometricPrecision" text-rendering="geometricPrecision"><path d="M384.18,164.41c-.543024.096767-.938878.568423-.94,1.12v6.26c.001122.551577.396976,1.023233.94,1.12l2.27.4c.330761.059489.670838-.031332.927901-.247806s.404432-.536134.402099-.872194v-7.06c.002333-.33606-.145037-.655721-.402099-.872194s-.59714-.307295-.927901-.247806l-2.27.4Z" transform="translate(-382.42-159.79)" fill="none" stroke="#00557c" stroke-width="0.37"/><polygon points="6.81,21.71 5.37,21.71 4.65,22.96 5.37,24.21 6.81,24.21 7.54,22.96 6.81,21.71" transform="translate(-3-7)" fill="none" stroke="#00557c" stroke-width="0.37"/><polygon points="6.81,7.54 5.37,7.54 4.65,8.79 5.37,10.04 6.81,10.04 7.54,8.79 6.81,7.54" transform="translate(-3-7)" fill="none" stroke="#00557c" stroke-width="0.37"/><path d="M386,161.58c0-.292711-.237289-.53-.53-.53-.212216.074608-.354216.275051-.354216.5s.142.425392.354216.5c.270795.00174.499349-.200939.53-.47Z" transform="translate(-382.42-159.79)" fill="none" stroke="#00557c" stroke-width="0.37"/><path d="M386,175.75c0-.292711-.237289-.53-.53-.53-.139663-.000026-.273465.05613-.371277.155823s-.151409.23454-.148723.374177c0,.287188.232812.52.52.52.139637.002686.274485-.050912.374177-.148723s.155849-.231614.155823-.371277Z" transform="translate(-382.42-159.79)" fill="none" stroke="#00557c" stroke-width="0.37"/></svg>
