<svg id="epd8ajqJA0c1" xmlns="http://www.w3.org/2000/svg" xmlns:xlink="http://www.w3.org/1999/xlink" viewBox="0 0 9.6 67.63" shape-rendering="geometricPrecision" text-rendering="geometricPrecision"><rect width="8.8" height="66.78" rx="0" ry="0" transform="translate(.4 0.43)" fill="#a6c4d1" stroke="#00557c" stroke-width="0.85"/><path d="" transform="translate(-395.31-153.27)" fill="#a6c4d1" fill-rule="evenodd" stroke="#00557c" stroke-width="0.85"/><rect width="6.41" height="17.43" rx="0" ry="0" transform="translate(1.8 10.12)" fill="#d9e6eb"/><rect width="2.31" height="2.3" rx="0" ry="0" transform="translate(5.66 29.58)" fill="none" stroke="#00557c" stroke-width="0.23"/><line x1="37.6" y1="8.91" x2="46.4" y2="8.91" transform="translate(-37 0)" fill="none" stroke="#00557c" stroke-width="0.23"/><line x1="37.6" y1="7.24" x2="46.4" y2="7.24" transform="translate(-37 0)" fill="none" stroke="#00557c" stroke-width="0.23"/><path d="M399.77,197.23c0,.64065-.51935,1.16-1.16,1.16s-1.16-.51935-1.16-1.16.51935-1.16,1.16-1.16c.307651,0,.602702.122214.820244.339756s.339756.512593.339756.820244Z" transform="translate(-395.31-153.27)" fill="none" fill-rule="evenodd" stroke="#00557c" stroke-width="0.23"/><path d="M403.05,197.23c-.005511.633796-.522799,1.143647-1.156609,1.139981s-1.145164-.519468-1.143343-1.153285.516132-1.146672,1.149952-1.146696c.30674-.000012.600772.122521.816729.340355s.335938.512917.333271.819645Z" transform="translate(-395.31-153.27)" fill="none" fill-rule="evenodd" stroke="#00557c" stroke-width="0.23"/><path d="M399.77,200.56c0,.64065-.51935,1.16-1.16,1.16s-1.16-.51935-1.16-1.16.51935-1.16,1.16-1.16c.307651,0,.602702.122214.820244.339756s.339756.512593.339756.820244Z" transform="translate(-395.31-153.27)" fill="none" fill-rule="evenodd" stroke="#00557c" stroke-width="0.23"/><path d="M403.05,200.56c-.005511.633796-.522799,1.143647-1.156609,1.139981s-1.145164-.519468-1.143343-1.153285.516132-1.146672,1.149952-1.146696c.30674-.000012.600772.122521.816729.340355s.335938.512917.333271.819645Z" transform="translate(-395.31-153.269999)" fill="none" fill-rule="evenodd" stroke="#00557c" stroke-width="0.23"/><path d="M399.77,204c0,.64065-.51935,1.16-1.16,1.16s-1.16-.51935-1.16-1.16.51935-1.16,1.16-1.16c.307651,0,.602702.122214.820244.339756s.339756.512593.339756.820244Z" transform="translate(-395.31-153.27)" fill="none" fill-rule="evenodd" stroke="#00557c" stroke-width="0.23"/><path d="M403.05,204c-.005511.633796-.522799,1.143647-1.156609,1.139981s-1.145164-.519468-1.143343-1.153285.516132-1.146672,1.149952-1.146696c.30674-.000012.600772.122521.816729.340355s.335938.512917.333271.819645Z" transform="translate(-395.31-153.269999)" fill="none" fill-rule="evenodd" stroke="#00557c" stroke-width="0.23"/><path d="M399.77,207.31c0,.64065-.51935,1.16-1.16,1.16s-1.16-.51935-1.16-1.16.51935-1.16,1.16-1.16c.307651,0,.602702.122214.820244.339756s.339756.512593.339756.820244Z" transform="translate(-395.31-153.27)" fill="none" fill-rule="evenodd" stroke="#00557c" stroke-width="0.23"/><path d="M403.05,207.31c-.005511.633796-.522799,1.143647-1.156609,1.139981s-1.145164-.519468-1.143343-1.153285.516132-1.146672,1.149952-1.146696c.30674-.000012.600772.122521.816729.340355s.335938.512917.333271.819645Z" transform="translate(-395.31-153.269999)" fill="none" fill-rule="evenodd" stroke="#00557c" stroke-width="0.23"/><path d="M399.77,210.6c.004052.470065-.275989.896103-.709114,1.078804s-.933694.085939-1.267528-.245017-.434926-.830668-.255982-1.265359.602542-.718411,1.072624-.718428c.636765-.000024,1.154511.513258,1.16,1.15Z" transform="translate(-395.309999-153.27)" fill="none" fill-rule="evenodd" stroke="#00557c" stroke-width="0.23"/><path d="M403.05,210.6c0,.465132-.280189.884463-.709914,1.062461s-.924361.079609-1.253259-.249288-.427287-.823533-.249288-1.253259.597329-.709914,1.062461-.709914c.635127,0,1.15.514873,1.15,1.15Z" transform="translate(-395.309999-153.269999)" fill="none" fill-rule="evenodd" stroke="#00557c" stroke-width="0.23"/><path d="M399.77,213.93c.004052.470065-.275989.896103-.709114,1.078804s-.933694.085939-1.267528-.245017-.434926-.830668-.255982-1.265359.602542-.718411,1.072624-.718428c.636765-.000024,1.154511.513258,1.16,1.15Z" transform="translate(-395.309999-153.27)" fill="none" fill-rule="evenodd" stroke="#00557c" stroke-width="0.23"/><path d="M403.05,213.93c0,.465132-.280189.884463-.709914,1.062461s-.924361.079609-1.253259-.249288-.427287-.823533-.249288-1.253259.597329-.709914,1.062461-.709914c.635127,0,1.15.514873,1.15,1.15Z" transform="translate(-395.309999-153.269999)" fill="none" fill-rule="evenodd" stroke="#00557c" stroke-width="0.23"/><path d="M399.77,217.26c.004052.470065-.275989.896103-.709114,1.078804s-.933694.085939-1.267528-.245017-.434926-.830668-.255982-1.265359.602542-.718411,1.072624-.718428c.306728-.002667.60181.117315.819645.333271s.340367.509989.340355.816729Z" transform="translate(-395.309999-153.27)" fill="none" fill-rule="evenodd" stroke="#00557c" stroke-width="0.23"/><path d="M403.05,217.26c0,.465132-.280189.884463-.709914,1.062461s-.924361.079609-1.253259-.249288-.427287-.823533-.249288-1.253259.597329-.709914,1.062461-.709914c.305817-.002695.599892.1176.816146.333854s.336549.510329.333854.816146Z" transform="translate(-395.309999-153.27)" fill="none" fill-rule="evenodd" stroke="#00557c" stroke-width="0.23"/><rect width="0.74" height="0.74" rx="0" ry="0" transform="translate(1.69 7.71)" fill="#d9edf5"/><polyline points="39.09,31.57 40.3,31.57 40.3,30.39 39.09,30.39 39.09,31.57" transform="translate(-37 0)" fill="#d9edf5" fill-rule="evenodd" stroke="#a6c4d1" stroke-width="0.23"/><polyline points="39.09,30.39 40.3,30.39 40.3,29.19 39.09,29.19 39.09,30.39" transform="translate(-37 0)" fill="#d9edf5" fill-rule="evenodd" stroke="#a6c4d1" stroke-width="0.23"/><polyline points="39.09,32.78 40.3,32.78 40.3,31.57 39.09,31.57 39.09,32.78" transform="translate(-37 0)" fill="#d9edf5" fill-rule="evenodd" stroke="#a6c4d1" stroke-width="0.23"/><polyline points="39.09,35.19 40.3,35.19 40.3,33.98 39.09,33.98 39.09,35.19" transform="translate(-37 0)" fill="#d9edf5" fill-rule="evenodd" stroke="#a6c4d1" stroke-width="0.23"/><polyline points="39.09,33.98 40.3,33.98 40.3,32.78 39.09,32.78 39.09,33.98" transform="translate(-37 0)" fill="#d9edf5" fill-rule="evenodd" stroke="#a6c4d1" stroke-width="0.23"/><polyline points="39.09,36.39 40.3,36.39 40.3,35.19 39.09,35.19 39.09,36.39" transform="translate(-37 0)" fill="#d9edf5" fill-rule="evenodd" stroke="#a6c4d1" stroke-width="0.23"/><polyline points="39.09,37.61 40.3,37.61 40.3,36.39 39.09,36.39 39.09,37.61" transform="translate(-37 0)" fill="#d9edf5" fill-rule="evenodd" stroke="#a6c4d1" stroke-width="0.23"/><polyline points="39.09,38.75 40.3,38.75 40.3,37.59 39.09,37.59 39.09,38.75" transform="translate(-37 0)" fill="#d9edf5" fill-rule="evenodd" stroke="#a6c4d1" stroke-width="0.23"/><polyline points="39.09,39.97 40.3,39.97 40.3,38.8 39.09,38.8 39.09,39.97" transform="translate(-37 0)" fill="#d9edf5" fill-rule="evenodd" stroke="#a6c4d1" stroke-width="0.23"/><polyline points="40.68,31.57 41.88,31.57 41.88,30.39 40.68,30.39 40.68,31.57" transform="translate(-37 0)" fill="#d9edf5" fill-rule="evenodd" stroke="#a6c4d1" stroke-width="0.23"/><polyline points="40.68,30.39 41.88,30.39 41.88,29.19 40.68,29.19 40.68,30.39" transform="translate(-37 0)" fill="#d9edf5" fill-rule="evenodd" stroke="#a6c4d1" stroke-width="0.23"/><polyline points="40.68,32.78 41.88,32.78 41.88,31.57 40.68,31.57 40.68,32.78" transform="translate(-37 0)" fill="#d9edf5" fill-rule="evenodd" stroke="#a6c4d1" stroke-width="0.23"/><polyline points="40.68,35.19 41.88,35.19 41.88,33.98 40.68,33.98 40.68,35.19" transform="translate(-37 0)" fill="#d9edf5" fill-rule="evenodd" stroke="#a6c4d1" stroke-width="0.23"/><polyline points="40.68,33.98 41.88,33.98 41.88,32.78 40.68,32.78 40.68,33.98" transform="translate(-37 0)" fill="#d9edf5" fill-rule="evenodd" stroke="#a6c4d1" stroke-width="0.23"/><polyline points="40.68,36.39 41.88,36.39 41.88,35.19 40.68,35.19 40.68,36.39" transform="translate(-37 0)" fill="#d9edf5" fill-rule="evenodd" stroke="#a6c4d1" stroke-width="0.23"/><polyline points="40.68,37.61 41.88,37.61 41.88,36.39 40.68,36.39 40.68,37.61" transform="translate(-37 0)" fill="#d9edf5" fill-rule="evenodd" stroke="#a6c4d1" stroke-width="0.23"/><polyline points="40.68,38.75 41.88,38.75 41.88,37.59 40.68,37.59 40.68,38.75" transform="translate(-37 0)" fill="#d9edf5" fill-rule="evenodd" stroke="#a6c4d1" stroke-width="0.23"/></svg>
